<?xml version="1.0" encoding="utf-8"?>
<!-- Generator: Adobe Illustrator 24.3.0, SVG Export Plug-In . SVG Version: 6.00 Build 0)  -->
<svg version="1.1" id="Layer_1" xmlns="http://www.w3.org/2000/svg" xmlns:xlink="http://www.w3.org/1999/xlink" x="0px" y="0px"
	 viewBox="0 0 306 74" style="enable-background:new 0 0 306 74;" xml:space="preserve">
<style type="text/css">
	.st0{fill:#021745;}
	.st1{fill:#000529;}
	.st2{fill:#0164E9;}
	.st3{fill:#0163E9;}
	.st4{fill:#0266EA;}
	.st5{fill:#021644;}
	.st6{fill:#021744;}
	.st7{fill:#091534;}
</style>
<g>
	<g>
		<g>
			<path class="st0" d="M37.88,5c1.09-0.41,2.37-0.34,3.41,0.19c6.34,2.72,12.67,5.46,19,8.21c0.58,0.19,1.02,0.89,0.7,1.47
				c-0.39,0.81-1.56,0.66-2.06,1.31c-0.02,0.93-0.03,1.86,0,2.79c0.24,0.33,0.7,0.49,0.86,0.9c0.33,0.59,0.02,1.26-0.36,1.74
				c0.1,0.74,0.46,1.4,0.66,2.12c0.22,0.76,0.48,1.51,0.71,2.27c0.12,0.33-0.2,0.59-0.44,0.75c-1.06,0.61-2.39,0.65-3.54,0.26
				c-0.38-0.14-0.8-0.33-0.95-0.74c0.44-1.52,0.99-3.01,1.47-4.51c-0.08-0.42-0.51-0.73-0.46-1.19c-0.1-0.66,0.37-1.26,0.97-1.47
				c0.03-0.85,0.02-1.71,0.01-2.56c-1.97,0.79-3.93,1.63-5.88,2.47c-0.04,0.33-0.15,0.64-0.34,0.92c-1.91-1.79-4.35-2.94-6.86-3.62
				c-3.02-0.85-6.23-0.95-9.3-0.37c-2.44,0.52-4.86,1.33-6.9,2.81c-0.55,0.39-1.03,0.88-1.6,1.24c-0.16-0.36-0.27-0.74-0.39-1.11
				c-1.9-0.62-3.68-1.56-5.54-2.28c-0.96-0.43-1.95-0.81-2.91-1.26c-0.69-0.38-0.62-1.51,0.09-1.83C24.78,10.66,31.33,7.84,37.88,5z
				 M37.68,15.43c1.16,0.13,2.34,0.07,3.5,0.01C40.02,15.32,38.84,15.24,37.68,15.43z"/>
		</g>
	</g>
	<g>
		<path class="st1" d="M37.68,15.43c1.15-0.19,2.34-0.1,3.5,0.01C40.02,15.49,38.84,15.56,37.68,15.43z"/>
	</g>
	<path class="st2" d="M17.67,29.06c-0.19-0.52,0.42-1.02,0.91-0.9c4.11,0.62,7.98,2.36,11.5,4.53c2.44,1.53,4.65,3.39,6.7,5.4
		c0.94,0.79,1.65,1.81,2.58,2.61c1.11-1.17,2.18-2.37,3.37-3.46c2.39-2.17,5.03-4.08,7.91-5.54c2.06-0.97,4.24-1.71,6.5-2.03
		c1.21-0.21,2.44-0.32,3.67-0.18c-0.01,0.2,0.15,0.49-0.11,0.59c-0.85,0.52-1.77,0.91-2.6,1.46c-4.89,3.15-8.95,7.44-12.47,12.04
		c-1.88,2.46-3.54,5.07-5.15,7.71c-0.24,0.34-0.41,0.81-0.84,0.94c-0.51,0.22-1.05-0.14-1.32-0.57c-0.9-1.34-1.91-2.6-2.81-3.94
		C30.74,41.1,25.28,34.9,18.76,29.95C18.39,29.66,17.94,29.46,17.67,29.06z"/>
	<g>
		<path class="st3" d="M38.08,18.88c2.04-0.32,4.23,0.13,5.87,1.42c1.62,1.19,2.74,3.05,3.02,5.04c0.36,2.13-0.36,4.37-1.76,6
			c-1.1,1.31-2.69,2.17-4.36,2.49c-2.22,0.42-4.61-0.14-6.4-1.51c-1.22-0.98-2.15-2.34-2.53-3.86c-0.6-2.1-0.2-4.45,1.04-6.25
			C34.11,20.46,36.01,19.23,38.08,18.88z"/>
	</g>
	<g>
		<path class="st4" d="M12.09,41.62c0.07-0.33,0.32-0.65,0.68-0.66c0.63-0.05,1.27-0.01,1.9,0c-0.34,1.74-0.9,3.44-1.33,5.16
			c-0.8,2.8-1.58,5.61-2.32,8.43c0.67,0.18,1.37,0.1,2.05,0.15c4.93,0.3,9.78,1.7,14.13,4.03c1.35,0.79,2.74,1.51,3.99,2.45
			c1.23,0.91,2.49,1.79,3.56,2.89c-1.03-0.52-2.05-1.07-3.07-1.62c-4.91-2.54-10.25-4.34-15.76-4.91c-2.73-0.38-5.51-0.33-8.25,0
			c-0.25,0.06-0.36-0.18-0.5-0.33C8.78,52.01,10.5,46.84,12.09,41.62z"/>
		<path class="st4" d="M63.94,40.97c0.63-0.04,1.26-0.04,1.89-0.02c0.28,0,0.55,0.19,0.65,0.45c1.62,5.23,3.32,10.43,4.95,15.65
			c0.09,0.21-0.1,0.37-0.19,0.53c-1.79-0.27-3.61-0.38-5.42-0.28c-0.8,0.11-1.61,0.04-2.41,0.15c-3.16,0.39-6.31,0.95-9.32,2.02
			c-2.68,0.88-5.25,2.05-7.75,3.35c-0.75,0.39-1.45,0.89-2.23,1.23c0.07-0.13,0.15-0.24,0.25-0.35c1.73-1.51,3.57-2.88,5.56-4.03
			c5.29-3.28,11.5-4.96,17.71-5.09c-0.48-2.13-1.17-4.21-1.7-6.33C65.26,45.83,64.55,43.41,63.94,40.97z"/>
		<path class="st4" d="M7.96,59.34c1.44-0.2,2.9-0.12,4.34-0.24c2.7,0.1,5.4,0.39,8.04,0.95c5.63,1.18,11.01,3.43,15.99,6.29
			c0.47,0.21,0.65,0.74,1.03,1.06c0.94,0.84,2.4,0.98,3.5,0.37c0.56-0.27,0.85-0.83,1.26-1.25c5.47-3.2,11.44-5.68,17.72-6.72
			c3.69-0.74,7.49-0.8,11.23-0.43c0.21,0.02,0.41,0.09,0.61,0.15c0.17,0.62,0.39,1.22,0.57,1.83c0.16,0.35-0.22,0.77-0.59,0.68
			c-2.98-0.35-5.99-0.34-8.97-0.08c-3.17,0.31-6.34,0.8-9.42,1.62c-3.45,0.91-6.76,2.33-9.87,4.06c-0.45,0.58-0.91,1.19-1.56,1.58
			c-1.64,0.98-3.89,0.9-5.41-0.28c-0.51-0.35-0.8-0.91-1.2-1.35c-2.36-1.28-4.8-2.43-7.36-3.26c-5.58-1.84-11.49-2.64-17.36-2.54
			c-1.15,0.08-2.3,0.1-3.44,0.24c-0.38,0.12-0.84-0.25-0.68-0.65c0.15-0.56,0.34-1.11,0.52-1.66C7.07,59.29,7.62,59.39,7.96,59.34z"
			/>
	</g>
	<g>
		<path class="st5" d="M59.96,41.18c0.57-0.11,1.15-0.21,1.73-0.24c0.84,3.02,1.6,6.06,2.47,9.08c0.21,0.9,0.54,1.78,0.62,2.7
			c-2.94,0.31-5.86,0.85-8.64,1.87c-5.7,2.02-10.8,5.58-14.92,9.98c-0.25,0.26-0.5,0.51-0.75,0.76c-0.17-3.13,0.48-6.26,1.63-9.17
			c2.06-5.22,6-9.67,10.92-12.39C55.17,42.55,57.53,41.7,59.96,41.18z"/>
	</g>
	<g>
		<path class="st6" d="M16.79,41.48c0.08-0.21,0.1-0.62,0.44-0.53c5.69,0.76,11.07,3.64,14.85,7.97c1.73,1.97,3.19,4.18,4.21,6.6
			c0.64,1.39,1.04,2.87,1.45,4.34c0.15,0.88,0.34,1.76,0.42,2.66c-0.07-0.23-0.15-0.46-0.22-0.69c-0.01,0.79-0.38,1.62-1.16,1.93
			c-3.79-3.8-8.31-6.92-13.32-8.86c-3.07-1.19-6.33-1.91-9.61-2.16c0.04-0.72,0.34-1.4,0.48-2.1
			C15.18,47.58,15.96,44.52,16.79,41.48z"/>
	</g>
	<g>
		<path class="st7" d="M36.77,63.75c0.78-0.3,1.15-1.13,1.16-1.93c0.07,0.23,0.15,0.46,0.22,0.69c0.18,0.91,0.1,1.86,0.12,2.78
			C37.76,64.79,37.29,64.25,36.77,63.75z"/>
	</g>
</g>
<polygon class="st5" points="101.15,11.02 78.6,11.02 78.6,15.9 86.88,15.9 86.88,36.89 92.87,36.89 92.87,15.9 101.15,15.9 "/>
<path class="st5" d="M116.34,17.97c-1.58-0.84-3.34-1.26-5.29-1.26c-2,0-3.8,0.44-5.42,1.31c-1.61,0.88-2.88,2.09-3.81,3.66
	c-0.92,1.56-1.39,3.32-1.39,5.27c0,1.97,0.47,3.73,1.4,5.29s2.27,2.77,3.99,3.64c1.72,0.88,3.71,1.31,5.95,1.31
	c3.6,0,6.33-1.07,8.21-3.22l-3.07-3.33c-0.69,0.67-1.44,1.15-2.24,1.46c-0.8,0.31-1.72,0.46-2.75,0.46c-1.5,0-2.76-0.36-3.77-1.07
	c-1.01-0.71-1.65-1.69-1.92-2.92h15.04c0.07-0.96,0.11-1.48,0.11-1.55c0-2.07-0.45-3.89-1.35-5.45
	C119.16,20.01,117.92,18.8,116.34,17.97z M106.18,25.21c0.2-1.28,0.74-2.29,1.63-3.03c0.89-0.74,1.98-1.11,3.29-1.11
	c1.28,0,2.37,0.38,3.25,1.13c0.89,0.75,1.43,1.76,1.63,3.01H106.18z"/>
<path class="st5" d="M132.72,16.71c-1.6,0-3.16,0.21-4.68,0.63c-1.52,0.42-2.81,1.01-3.9,1.77l2.07,4.03
	c0.71-0.57,1.58-1.02,2.61-1.35c1.02-0.33,2.06-0.5,3.12-0.5c1.53,0,2.67,0.34,3.44,1.02s1.15,1.65,1.15,2.9h-4.58
	c-2.91,0-5.06,0.53-6.45,1.59c-1.39,1.06-2.09,2.51-2.09,4.36c0,1.16,0.3,2.19,0.89,3.11c0.59,0.91,1.45,1.63,2.57,2.14
	c1.12,0.52,2.45,0.78,3.97,0.78c2.96,0,4.98-0.92,6.06-2.77v2.48h5.4V25.54c0-2.96-0.83-5.17-2.48-6.64S135.8,16.71,132.72,16.71z
	 M136.53,30.61c-0.32,0.89-0.86,1.56-1.63,2.01c-0.76,0.46-1.64,0.68-2.62,0.68c-1.01,0-1.81-0.22-2.38-0.65
	c-0.58-0.43-0.87-1.02-0.87-1.76c0-1.55,1.18-2.33,3.55-2.33h3.96V30.61z"/>
<path class="st5" d="M157.3,21.44c1.95,0,3.44,0.91,4.47,2.74l4.47-2.4c-0.71-1.63-1.86-2.88-3.42-3.75
	c-1.56-0.87-3.39-1.31-5.49-1.31c-2.12,0-4.02,0.44-5.71,1.31c-1.69,0.88-3.01,2.09-3.96,3.64c-0.95,1.55-1.42,3.31-1.42,5.29
	s0.47,3.73,1.42,5.29s2.27,2.77,3.96,3.64c1.69,0.88,3.59,1.31,5.71,1.31c2.09,0,3.92-0.44,5.49-1.33s2.71-2.12,3.42-3.7l-4.47-2.44
	c-1.01,1.82-2.5,2.74-4.47,2.74c-1.5,0-2.75-0.49-3.73-1.48c-0.99-0.99-1.48-2.33-1.48-4.03c0-1.7,0.49-3.04,1.48-4.03
	C154.55,21.93,155.8,21.44,157.3,21.44z"/>
<path class="st5" d="M181.51,16.71c-1.28,0-2.46,0.2-3.55,0.61c-1.08,0.41-2.01,0.99-2.77,1.76V9.46h-5.77v27.43h5.77v-9.83
	c0-1.77,0.43-3.11,1.29-4.01c0.86-0.9,2.02-1.35,3.48-1.35c1.31,0,2.3,0.39,2.99,1.16c0.69,0.78,1.04,1.95,1.04,3.53v10.5h5.77
	V25.51c0-2.91-0.76-5.1-2.27-6.58C185.97,17.45,183.98,16.71,181.51,16.71z"/>
<path class="st5" d="M209.61,17.97c-1.58-0.84-3.34-1.26-5.29-1.26c-2,0-3.8,0.44-5.42,1.31c-1.61,0.88-2.88,2.09-3.81,3.66
	c-0.92,1.56-1.39,3.32-1.39,5.27c0,1.97,0.47,3.73,1.41,5.29c0.94,1.55,2.27,2.77,3.99,3.64c1.72,0.88,3.71,1.31,5.95,1.31
	c3.6,0,6.33-1.07,8.21-3.22l-3.07-3.33c-0.69,0.67-1.44,1.15-2.24,1.46c-0.8,0.31-1.72,0.46-2.75,0.46c-1.5,0-2.76-0.36-3.77-1.07
	c-1.01-0.71-1.65-1.69-1.92-2.92h15.05c0.07-0.96,0.11-1.48,0.11-1.55c0-2.07-0.45-3.89-1.35-5.45
	C212.42,20.01,211.18,18.8,209.61,17.97z M199.44,25.21c0.2-1.28,0.74-2.29,1.63-3.03c0.89-0.74,1.98-1.11,3.29-1.11
	c1.28,0,2.37,0.38,3.25,1.13c0.89,0.75,1.43,1.76,1.63,3.01H199.44z"/>
<path class="st5" d="M224.02,19.63V17h-5.51v19.89h5.77V27.5c0-1.85,0.47-3.23,1.4-4.16c0.94-0.92,2.23-1.39,3.88-1.39
	c0.22,0,0.65,0.02,1.29,0.07v-5.32c-1.53,0-2.88,0.25-4.05,0.74C225.64,17.94,224.71,18.67,224.02,19.63z"/>
<path class="st5" d="M246.61,25.78c-1.04-0.31-2.37-0.6-3.99-0.87c-1.46-0.22-2.51-0.46-3.18-0.7c-0.67-0.25-1-0.68-1-1.29
	c0-0.54,0.31-0.99,0.92-1.33c0.62-0.34,1.54-0.52,2.77-0.52c2.07,0,3.98,0.49,5.73,1.48l1.92-4.1c-0.91-0.54-2.06-0.97-3.46-1.28
	c-1.39-0.31-2.79-0.46-4.2-0.46c-1.9,0-3.54,0.27-4.94,0.81c-1.39,0.54-2.45,1.3-3.18,2.27c-0.73,0.97-1.09,2.09-1.09,3.35
	c0,1.5,0.39,2.66,1.17,3.47c0.78,0.81,1.69,1.38,2.75,1.7c1.06,0.32,2.4,0.6,4.03,0.85c1.38,0.17,2.4,0.38,3.07,0.63
	c0.67,0.25,1,0.65,1,1.22c0,1.21-1.22,1.81-3.66,1.81c-1.21,0-2.44-0.18-3.7-0.54c-1.26-0.36-2.33-0.82-3.22-1.39l-1.92,4.14
	c0.94,0.62,2.19,1.13,3.77,1.53c1.58,0.41,3.19,0.61,4.84,0.61c1.95,0,3.63-0.27,5.05-0.79s2.5-1.28,3.23-2.24
	c0.74-0.96,1.11-2.06,1.11-3.29c0-1.45-0.38-2.59-1.15-3.4C248.54,26.65,247.64,26.09,246.61,25.78z"/>
<rect x="254.41" y="11.02" class="st3" width="5.99" height="25.88"/>
<path class="st3" d="M290.77,17.15c-1.2-1.95-2.87-3.46-5.03-4.53c-2.16-1.07-4.64-1.61-7.45-1.61h-11.75v25.88h11.75
	c2.81,0,5.29-0.54,7.45-1.61c2.16-1.07,3.83-2.58,5.03-4.53s1.79-4.21,1.79-6.8C292.56,21.37,291.96,19.1,290.77,17.15z
	 M284.19,29.81c-1.54,1.44-3.6,2.16-6.19,2.16h-5.47V15.93h5.47c2.59,0,4.65,0.72,6.19,2.16c1.54,1.44,2.31,3.4,2.31,5.86
	S285.73,28.37,284.19,29.81z"/>
<g>
	<path class="st5" d="M134.62,56.43c-0.25,0-0.46,0.09-0.64,0.28c-0.18,0.19-0.27,0.41-0.27,0.65c0,0.27,0.1,0.51,0.31,0.72
		c0.2,0.21,0.45,0.31,0.73,0.31c0.25,0,0.46-0.1,0.63-0.3c0.17-0.2,0.26-0.42,0.26-0.67c0-0.27-0.1-0.5-0.3-0.7
		C135.14,56.53,134.9,56.43,134.62,56.43z"/>
	<path class="st5" d="M131.59,48.59h-0.95h-10.11h-0.76h-4.79h-1.13h-11.42h-0.81c-0.18,0-0.31-0.04-0.39-0.1
		c-0.08-0.07-0.13-0.15-0.15-0.25c-0.03-0.1-0.05-0.2-0.06-0.31s-0.06-0.2-0.12-0.27c-0.09-0.11-0.18-0.21-0.28-0.3
		c-0.1-0.09-0.21-0.18-0.31-0.27c0.03,0.81,0.07,1.56,0.11,2.25s0.11,1.44,0.19,2.25c-0.04-0.14-0.16-0.38-0.35-0.72
		c-0.19-0.34-0.42-0.68-0.68-1.02c-0.26-0.34-0.52-0.64-0.77-0.9c-0.26-0.26-0.47-0.4-0.65-0.4c-0.26,0-0.51,0.05-0.74,0.16
		c-0.24,0.11-0.46,0.25-0.66,0.42c-0.2,0.17-0.38,0.37-0.53,0.58c-0.15,0.21-0.27,0.43-0.37,0.65c-0.05-0.24-0.15-0.46-0.28-0.68
		s-0.3-0.4-0.5-0.56s-0.42-0.29-0.65-0.39c-0.24-0.1-0.48-0.15-0.73-0.15H92.8h-0.08c-0.25,0-0.47,0-0.67-0.01
		c-0.2-0.01-0.3-0.01-0.3-0.02c0,0,0.01,0.02,0.02,0.03h-0.75c-0.01-0.03-0.04-0.09-0.07-0.18s-0.08-0.18-0.12-0.27
		c-0.04-0.1-0.08-0.18-0.11-0.27s-0.05-0.13-0.05-0.15c0-0.04,0.03-0.15,0.1-0.31c0.06-0.17,0.17-0.36,0.31-0.58
		c0.15-0.22,0.33-0.44,0.56-0.67c0.23-0.23,0.5-0.42,0.81-0.58c0.32-0.16,0.69-0.27,1.11-0.33c0.42-0.06,0.91-0.02,1.44,0.1
		c0.54,0.13,1.13,0.37,1.79,0.72s1.38,0.85,2.18,1.49l-0.21-0.61c-0.38-0.38-0.77-0.73-1.19-1.06c-0.42-0.33-0.87-0.62-1.34-0.87
		c-0.47-0.25-0.97-0.44-1.48-0.59c-0.52-0.14-1.05-0.22-1.6-0.22c-0.37,0-0.76,0.08-1.19,0.25c-0.42,0.17-0.82,0.39-1.18,0.68
		c-0.36,0.29-0.66,0.61-0.9,0.98c-0.24,0.37-0.36,0.75-0.36,1.15c0,0.13,0.03,0.26,0.1,0.38c0.07,0.12,0.16,0.24,0.26,0.36
		c0.1,0.11,0.21,0.22,0.31,0.31s0.2,0.19,0.29,0.29h-2.44l0.95,0.95h1.4v8.69c-0.01,0,0.03,0.05,0.13,0.14s0.2,0.2,0.32,0.32
		c0.14,0.14,0.3,0.29,0.48,0.47v-9.63h2.24c0.23,0,0.44,0.02,0.63,0.07c0.21,0.06,0.4,0.17,0.56,0.33c0.17,0.16,0.31,0.4,0.44,0.73
		c-0.51,0.11-0.91,0.33-1.22,0.66c-0.31,0.33-0.49,0.69-0.56,1.07c-0.06,0.38,0,0.74,0.21,1.06c0.2,0.33,0.56,0.54,1.08,0.62
		c0.16,0.03,0.32,0.02,0.48-0.04c0.16-0.06,0.3-0.15,0.44-0.26c0.13-0.11,0.26-0.24,0.36-0.39c0.11-0.15,0.19-0.29,0.26-0.43
		c0.08,0.13,0.16,0.26,0.26,0.39s0.2,0.24,0.32,0.34c0.12,0.1,0.25,0.17,0.39,0.22c0.14,0.05,0.29,0.06,0.45,0.04
		c0.39-0.05,0.68-0.16,0.88-0.31c0.2-0.16,0.33-0.34,0.39-0.54c0.06-0.2,0.06-0.42-0.01-0.66c-0.06-0.24-0.17-0.46-0.31-0.67
		c-0.15-0.21-0.32-0.4-0.52-0.56c-0.2-0.17-0.41-0.28-0.63-0.35c0-0.11,0.03-0.21,0.1-0.3c0.07-0.09,0.16-0.17,0.27-0.23
		s0.22-0.12,0.33-0.15c0.11-0.04,0.22-0.06,0.31-0.06c0.17,0,0.37,0.09,0.58,0.26c0.21,0.17,0.41,0.38,0.59,0.62
		c0.18,0.24,0.33,0.49,0.44,0.74c0.12,0.25,0.18,0.46,0.18,0.62l-0.06,5.94c0.18,0.18,0.35,0.34,0.5,0.48
		c0.12,0.12,0.23,0.23,0.34,0.32c0.11,0.1,0.17,0.15,0.18,0.15v-9.71h1.1h0.6c0.26,0,0.51,0.03,0.74,0.09
		c0.24,0.06,0.43,0.16,0.59,0.3s0.21,0.35,0.17,0.64c-0.27,0-0.49,0.06-0.66,0.19c-0.17,0.12-0.3,0.28-0.38,0.48
		c-0.08,0.19-0.12,0.4-0.11,0.63c0.01,0.23,0.05,0.44,0.14,0.63s0.21,0.35,0.38,0.48c0.17,0.13,0.37,0.19,0.6,0.19
		c0.16,0,0.31-0.03,0.45-0.1c0.14-0.07,0.26-0.16,0.37-0.27c0.11-0.11,0.19-0.24,0.26-0.39s0.1-0.3,0.1-0.46
		c0.24-0.15,0.48-0.2,0.72-0.14c0.24,0.05,0.45,0.17,0.63,0.35c0.18,0.18,0.3,0.41,0.38,0.67c0.08,0.26,0.06,0.52-0.05,0.78
		c-0.19-0.03-0.38-0.03-0.57,0.02s-0.36,0.12-0.52,0.22s-0.28,0.24-0.37,0.4s-0.14,0.36-0.14,0.57c0,0.38,0.11,0.67,0.32,0.89
		c0.22,0.21,0.52,0.32,0.9,0.32c0.66,0,1.09-0.3,1.29-0.9c0.37,0.17,0.67,0.38,0.91,0.63s0.45,0.52,0.62,0.82
		c0.17,0.3,0.32,0.62,0.44,0.96c0.12,0.34,0.24,0.69,0.37,1.04c0.06,0.09,0.12,0.17,0.18,0.24c0.05,0.06,0.1,0.12,0.13,0.18
		s0.06,0.09,0.08,0.11v-6.84c0.15-0.05,0.3-0.09,0.44-0.11c0.14-0.02,0.28-0.02,0.42-0.02c0.28,0,0.55,0.03,0.8,0.08
		c0.25,0.05,0.46,0.14,0.64,0.27c0.17,0.12,0.29,0.29,0.35,0.49c0.06,0.21,0.04,0.46-0.06,0.76c-0.11-0.25-0.28-0.4-0.52-0.45
		s-0.47-0.08-0.71-0.08c-0.11,0-0.21,0.04-0.31,0.14c-0.1,0.09-0.18,0.21-0.24,0.35s-0.09,0.29-0.09,0.46s0.05,0.32,0.15,0.46
		c0.1,0.14,0.25,0.26,0.47,0.35c0.21,0.09,0.5,0.14,0.85,0.14c0.22,0,0.4-0.05,0.56-0.14c0.16-0.09,0.29-0.21,0.4-0.36
		c0.1-0.15,0.18-0.32,0.23-0.51c0.05-0.19,0.07-0.38,0.07-0.57c0-0.42-0.1-0.8-0.31-1.14s-0.47-0.62-0.79-0.85
		c-0.32-0.23-0.69-0.38-1.1-0.47c-0.41-0.09-0.82-0.09-1.24,0v-1.52h3.89h1.15h1.71c-0.58,0.68-1.06,1.41-1.43,2.2
		s-0.56,1.64-0.56,2.54c0,0.47,0.06,0.98,0.19,1.51s0.33,1.03,0.6,1.49c0.27,0.46,0.61,0.84,1.02,1.15s0.89,0.45,1.45,0.45
		c0.23,0,0.44-0.04,0.65-0.11s0.38-0.18,0.54-0.32c0.16-0.14,0.28-0.3,0.37-0.49c0.09-0.19,0.14-0.4,0.14-0.62
		c0-0.15-0.03-0.3-0.09-0.45c-0.06-0.15-0.14-0.28-0.25-0.4c-0.11-0.12-0.23-0.21-0.36-0.29s-0.28-0.11-0.44-0.11
		c-0.14,0-0.28,0.03-0.41,0.08c-0.13,0.05-0.26,0.13-0.36,0.23s-0.2,0.21-0.27,0.34s-0.1,0.26-0.1,0.4c0,0.18,0.06,0.38,0.17,0.58
		c0.11,0.2,0.24,0.35,0.4,0.43c-0.02,0.03-0.06,0.05-0.11,0.07c-0.05,0.01-0.09,0.02-0.11,0.02c-0.31,0-0.59-0.1-0.83-0.31
		c-0.24-0.21-0.45-0.47-0.61-0.77c-0.17-0.31-0.29-0.63-0.38-0.96c-0.09-0.33-0.13-0.63-0.13-0.89c0-0.62,0.05-1.21,0.15-1.77
		s0.27-1.06,0.52-1.52c0.24-0.46,0.57-0.86,0.98-1.22s0.93-0.66,1.54-0.9c0.25-0.1,0.5-0.18,0.76-0.25c0.26-0.07,0.52-0.1,0.79-0.09
		h5.06v0.74c-0.44,0.13-0.9,0.3-1.38,0.5c-0.48,0.2-0.95,0.43-1.42,0.68s-0.92,0.51-1.36,0.8c-0.44,0.29-0.84,0.57-1.19,0.86
		l1.32,1.61c0.6,0.06,1.14,0.21,1.63,0.43c0.48,0.23,0.91,0.52,1.29,0.87c0.38,0.36,0.7,0.76,0.98,1.23
		c0.27,0.46,0.51,0.97,0.7,1.52c0.06,0.08,0.12,0.13,0.18,0.18c0.05,0.04,0.1,0.08,0.13,0.11s0.06,0.05,0.08,0.05v-7.58
		c0.02,0.01,0.04,0.01,0.06,0.01c0.02-0.01,0.04-0.01,0.06-0.01h0.08c0.32-0.02,0.64,0.03,0.95,0.16c0.31,0.13,0.59,0.31,0.84,0.53
		c0.25,0.23,0.45,0.49,0.6,0.79s0.23,0.61,0.23,0.94c0,0.03,0,0.06-0.01,0.09c0,0.03-0.01,0.06-0.01,0.09
		c-0.23-0.24-0.46-0.39-0.71-0.47c-0.25-0.07-0.47-0.08-0.67-0.02c-0.2,0.06-0.36,0.18-0.49,0.37c-0.13,0.19-0.19,0.42-0.19,0.69
		c0,0.16,0.04,0.31,0.1,0.45c0.07,0.14,0.16,0.26,0.28,0.37s0.25,0.19,0.4,0.25c0.15,0.06,0.3,0.09,0.46,0.09
		c0.25,0,0.47-0.05,0.68-0.16s0.38-0.25,0.53-0.43c0.15-0.18,0.27-0.37,0.36-0.59c0.09-0.21,0.15-0.44,0.17-0.66
		c0.05-0.42,0-0.85-0.17-1.29c-0.17-0.44-0.42-0.84-0.76-1.21s-0.75-0.67-1.23-0.9c-0.48-0.24-1-0.36-1.57-0.37v-0.71h4.11h0.94
		h4.87v0.61c-1.01,0.31-1.98,0.71-2.92,1.21c-0.94,0.49-1.84,1.05-2.71,1.66l1.23,1.69c0.83,0.05,1.51,0.23,2.06,0.54
		c0.54,0.31,0.99,0.66,1.35,1.06c0.35,0.4,0.64,0.82,0.86,1.25c0.22,0.43,0.42,0.8,0.61,1.1c0.14,0.16,0.23,0.27,0.28,0.33
		c0.05,0.06,0.12,0.12,0.2,0.17v-9.63h2.06l-0.97-0.95H131.59z M109.96,55.99c-0.12-0.4-0.31-0.75-0.57-1.06
		c-0.26-0.31-0.57-0.58-0.93-0.79c-0.01-0.46-0.1-0.87-0.27-1.23c-0.17-0.35-0.37-0.66-0.6-0.93c-0.24-0.26-0.49-0.49-0.77-0.68
		c-0.27-0.19-0.53-0.34-0.77-0.46c-0.24-0.12-0.44-0.21-0.6-0.27c-0.16-0.06-0.25-0.1-0.26-0.12c-0.08-0.15-0.15-0.31-0.21-0.47
		s-0.14-0.31-0.23-0.45h2.34c0.03,0.38,0.13,0.73,0.31,1.05s0.39,0.61,0.65,0.85c0.26,0.25,0.55,0.45,0.88,0.61
		c0.33,0.16,0.67,0.25,1.02,0.28V55.99z M109.96,51.38c-0.18-0.04-0.39-0.09-0.61-0.13s-0.44-0.11-0.64-0.2
		c-0.2-0.09-0.37-0.22-0.5-0.4s-0.2-0.41-0.2-0.71c0-0.06,0.01-0.15,0.03-0.25c0.02-0.1,0.08-0.15,0.18-0.15h1.74V51.38z
		 M126.53,56.54c-0.39-0.71-0.87-1.32-1.45-1.84c-0.58-0.52-1.24-0.93-1.98-1.24c0.56-0.4,1.1-0.75,1.64-1.06s1.13-0.58,1.8-0.83
		V56.54z M137.4,56.83c-0.38-0.8-0.88-1.46-1.52-2.01c-0.63-0.54-1.35-0.98-2.16-1.31c0.59-0.43,1.18-0.8,1.77-1.11
		c0.59-0.31,1.22-0.59,1.91-0.82V56.83z"/>
	<path class="st5" d="M160.96,56.43c-0.25,0-0.46,0.09-0.64,0.28c-0.18,0.19-0.27,0.41-0.27,0.65c0,0.27,0.1,0.51,0.31,0.72
		c0.2,0.21,0.45,0.31,0.73,0.31c0.25,0,0.46-0.1,0.63-0.3c0.17-0.2,0.26-0.42,0.26-0.67c0-0.27-0.1-0.5-0.3-0.7
		C161.48,56.53,161.24,56.43,160.96,56.43z"/>
	<path class="st5" d="M176.9,56.47c-0.27,0-0.5,0.09-0.68,0.27s-0.27,0.41-0.27,0.69c0,0.28,0.11,0.52,0.32,0.73
		c0.21,0.21,0.46,0.31,0.74,0.31c0.27,0,0.49-0.1,0.68-0.3s0.27-0.43,0.27-0.7c0-0.28-0.11-0.52-0.32-0.71
		C177.42,56.57,177.18,56.47,176.9,56.47z"/>
	<path class="st5" d="M173.49,48.59h-0.97h-6.74h-0.92h-6.82h-1.06h-0.71c-0.01-0.03-0.03-0.09-0.07-0.18s-0.08-0.18-0.12-0.27
		c-0.04-0.1-0.08-0.18-0.11-0.27s-0.05-0.13-0.05-0.15c0-0.04,0.03-0.15,0.1-0.31s0.17-0.36,0.31-0.58
		c0.15-0.22,0.33-0.44,0.56-0.67s0.5-0.42,0.81-0.58c0.32-0.16,0.69-0.27,1.11-0.33c0.42-0.06,0.91-0.02,1.44,0.1
		c0.54,0.13,1.13,0.37,1.79,0.72s1.38,0.85,2.18,1.49l-0.21-0.61c-0.38-0.38-0.77-0.73-1.19-1.06c-0.42-0.33-0.87-0.62-1.34-0.87
		c-0.47-0.25-0.97-0.44-1.48-0.59c-0.52-0.14-1.05-0.22-1.6-0.22c-0.37,0-0.76,0.08-1.19,0.25c-0.42,0.17-0.82,0.39-1.18,0.68
		c-0.36,0.29-0.66,0.61-0.9,0.98c-0.24,0.37-0.36,0.75-0.36,1.15c0,0.13,0.04,0.26,0.11,0.38c0.07,0.12,0.16,0.24,0.26,0.36
		c0.1,0.11,0.21,0.22,0.31,0.31s0.2,0.19,0.29,0.29h-1.34h-0.37h-0.58c-0.24-0.13-0.39-0.25-0.47-0.37s-0.12-0.31-0.15-0.58
		l-0.05-0.1l-0.52-0.39c-0.01,0.9-0.01,1.76,0.02,2.58c0.02,0.82,0.11,1.67,0.26,2.56c-0.09-0.44-0.25-0.87-0.48-1.3
		c-0.23-0.42-0.51-0.81-0.85-1.15c-0.33-0.34-0.71-0.61-1.13-0.81c-0.42-0.2-0.87-0.31-1.34-0.31c-0.31,0-0.68,0.07-1.11,0.22
		c-0.42,0.14-0.83,0.34-1.22,0.58c-0.39,0.24-0.72,0.53-0.99,0.85c-0.27,0.33-0.41,0.68-0.41,1.04c0,0.17,0.08,0.34,0.23,0.52
		c0.15,0.17,0.32,0.26,0.5,0.26c0.1,0,0.2-0.02,0.3-0.06c0.1-0.04,0.21-0.08,0.31-0.13c0.11-0.05,0.21-0.09,0.32-0.13
		c0.11-0.04,0.21-0.06,0.31-0.06c0.13,0,0.23,0.03,0.31,0.1c0.08,0.06,0.15,0.14,0.19,0.24c0.05,0.1,0.08,0.21,0.1,0.32
		c0.02,0.12,0.02,0.23,0.02,0.32c0,0.14-0.04,0.27-0.11,0.4s-0.16,0.25-0.26,0.36c-0.1,0.11-0.21,0.22-0.32,0.31
		c-0.11,0.1-0.21,0.19-0.3,0.29l1.39,0.52l3.21-3.24c0.1,0.06,0.21,0.17,0.33,0.32c0.12,0.15,0.24,0.32,0.34,0.5
		c0.1,0.18,0.19,0.37,0.27,0.55s0.11,0.33,0.11,0.45c0,0.29,0,0.55-0.01,0.78c0,0.23-0.01,0.5-0.02,0.79
		c-0.01,0.3-0.01,0.59-0.02,0.9c-0.02,0.72-0.04,1.53-0.05,2.44c0.15,0.16,0.31,0.33,0.48,0.52c0.17,0.18,0.36,0.34,0.56,0.47v-9.63
		h1.02h1.07h0.34v8.69c-0.01,0,0.03,0.05,0.13,0.14s0.2,0.2,0.32,0.32c0.14,0.14,0.3,0.29,0.48,0.47v-9.63h1.34h1.06h4.74v0.61
		c-1.01,0.31-1.98,0.71-2.92,1.21c-0.94,0.49-1.84,1.05-2.71,1.66l1.23,1.69c0.83,0.05,1.51,0.23,2.06,0.54
		c0.54,0.31,0.99,0.66,1.35,1.06c0.35,0.4,0.64,0.82,0.86,1.25c0.22,0.43,0.42,0.8,0.61,1.1c0.14,0.16,0.23,0.27,0.28,0.33
		c0.05,0.06,0.12,0.12,0.2,0.17v-9.63h1.1h0.97h0.39c0,0.04,0,0.24,0,0.6c0,0.36,0,0.79,0,1.31c0,0.52,0,1.07,0,1.66
		c0,0.59,0,1.14,0,1.64s0,1.08,0,1.75c0,0.25,0.05,0.48,0.15,0.69s0.22,0.4,0.38,0.56s0.33,0.29,0.52,0.38
		c0.19,0.09,0.37,0.14,0.56,0.14c0.31,0,0.63-0.08,0.94-0.23c0.32-0.16,0.62-0.36,0.92-0.61c0.3-0.25,0.57-0.54,0.83-0.87
		c0.26-0.33,0.48-0.67,0.67-1.02c0.19-0.36,0.34-0.71,0.45-1.06c0.11-0.36,0.17-0.68,0.17-0.97c0-0.31-0.08-0.56-0.23-0.76
		c-0.15-0.19-0.35-0.36-0.59-0.49s-0.52-0.25-0.83-0.35c-0.31-0.1-0.63-0.21-0.95-0.35c-0.32-0.13-0.64-0.29-0.95-0.48
		c-0.31-0.18-0.59-0.43-0.84-0.74c-0.17-0.23-0.25-0.49-0.24-0.79h5.35c0.09,0.09,0.17,0.18,0.25,0.26c0.19,0.16,0.4,0.3,0.62,0.4
		c0.23,0.11,0.51,0.18,0.86,0.23c0.38,0.04,0.71,0.11,0.99,0.2c0.29,0.09,0.56,0.28,0.83,0.56c-0.5,0.39-0.98,0.78-1.44,1.17
		c-0.47,0.39-0.93,0.81-1.38,1.27l1.27,1.61c0.96,0.05,1.81,0.31,2.56,0.77s1.34,1.13,1.77,2.02c0.11,0.23,0.22,0.46,0.33,0.7
		c0.11,0.24,0.27,0.44,0.48,0.59v-9.77h2.16l-1-0.95H173.49z M148.2,52.67c0.06-0.18,0.07-0.38,0.02-0.58
		c-0.05-0.2-0.14-0.39-0.27-0.56c-0.12-0.17-0.27-0.3-0.45-0.41c-0.18-0.11-0.36-0.16-0.56-0.15h-0.08
		c0.21-0.43,0.51-0.74,0.88-0.93c0.37-0.19,0.79-0.28,1.27-0.28c0.57,0,1.05,0.23,1.44,0.68L148.2,52.67z M163.74,56.83
		c-0.38-0.8-0.88-1.46-1.52-2.01c-0.63-0.54-1.35-0.98-2.16-1.31c0.59-0.43,1.18-0.8,1.77-1.11c0.59-0.31,1.22-0.59,1.91-0.82V56.83
		z M169.43,52.55c0.57,0.4,1.17,0.69,1.79,0.89c0.02,0.06,0.03,0.13,0.03,0.2c0,0.07,0,0.14,0,0.2c0,0.25-0.1,0.55-0.29,0.91
		c-0.19,0.36-0.43,0.71-0.71,1.04c-0.28,0.33-0.58,0.62-0.9,0.85s-0.61,0.35-0.87,0.35c-0.15,0-0.25-0.06-0.31-0.17
		s-0.08-0.23-0.08-0.36v-5.39C168.41,51.67,168.86,52.16,169.43,52.55z M179.62,56.84c-0.4-0.67-0.88-1.24-1.46-1.72
		s-1.23-0.84-1.98-1.07c0.37-0.42,0.74-0.81,1.13-1.16c0.39-0.36,0.76-0.74,1.13-1.15c-0.37-0.42-0.72-0.81-1.06-1.19
		c-0.34-0.37-0.75-0.71-1.22-1.02h3.45V56.84z"/>
	<path class="st5" d="M187.28,57.81c-0.12-0.17-0.27-0.31-0.47-0.4c-0.19-0.1-0.44-0.14-0.73-0.14c-0.75,0-1.13,0.38-1.13,1.14
		c0,0.28,0.1,0.5,0.29,0.66c0.19,0.16,0.43,0.24,0.71,0.24c0.11,0,0.21-0.01,0.32-0.03c0.11-0.02,0.21-0.03,0.31-0.03
		c0.09,0,0.14,0.05,0.17,0.15c0.03,0.1,0.04,0.18,0.04,0.26c0,0.19-0.05,0.38-0.15,0.57c-0.1,0.19-0.22,0.36-0.37,0.52
		c-0.15,0.16-0.31,0.31-0.49,0.44s-0.35,0.24-0.51,0.31l0.16,0.37c0.25-0.09,0.5-0.23,0.76-0.43c0.26-0.2,0.49-0.43,0.7-0.68
		c0.21-0.25,0.38-0.52,0.51-0.81s0.19-0.57,0.19-0.85c0-0.26-0.02-0.5-0.07-0.72C187.49,58.18,187.4,57.98,187.28,57.81z"/>
	<path class="st5" d="M235.6,48.59h-1.06h-0.65c-0.13-0.46-0.29-0.92-0.48-1.38c-0.19-0.46-0.42-0.88-0.69-1.27
		c-0.27-0.39-0.59-0.74-0.96-1.04s-0.8-0.53-1.3-0.69c-0.38-0.13-0.77-0.24-1.17-0.34s-0.81-0.15-1.22-0.15
		c-0.25,0-0.57,0.04-0.96,0.1c-0.39,0.07-0.78,0.18-1.15,0.32c-0.38,0.14-0.7,0.33-0.98,0.56c-0.27,0.23-0.41,0.5-0.41,0.82
		c0,0.45,0.12,0.79,0.36,1.02c0.24,0.23,0.55,0.4,0.91,0.51s0.76,0.17,1.18,0.2c0.42,0.03,0.81,0.06,1.18,0.1
		c0.37,0.04,0.67,0.1,0.91,0.19c0.24,0.09,0.36,0.25,0.36,0.49c0,0.14-0.05,0.26-0.15,0.37s-0.2,0.21-0.3,0.29h0.58v8.26
		c-0.16-0.3-0.36-0.58-0.6-0.84s-0.51-0.49-0.79-0.71c-0.29-0.21-0.58-0.42-0.88-0.6c-0.3-0.19-0.59-0.37-0.87-0.54
		c0.27-0.17,0.54-0.36,0.81-0.57c0.27-0.21,0.51-0.44,0.73-0.7c0.21-0.26,0.39-0.54,0.52-0.84s0.19-0.63,0.19-0.98
		c0-0.35-0.06-0.69-0.19-1c-0.12-0.31-0.3-0.59-0.52-0.82c-0.23-0.24-0.49-0.42-0.8-0.56c-0.31-0.13-0.64-0.2-0.99-0.2
		c-0.34,0-0.7,0.06-1.07,0.17c-0.37,0.11-0.71,0.28-1.02,0.49c-0.12,0.09-0.23,0.19-0.34,0.29l-0.95-0.95h-1.44
		c-0.1-0.11-0.18-0.2-0.24-0.27c-0.06-0.07-0.12-0.14-0.15-0.2c-0.04-0.06-0.07-0.14-0.1-0.23s-0.05-0.2-0.07-0.34l-0.39-0.31
		c0.05,0.55,0.11,1,0.16,1.35c0.05,0.36,0.1,0.66,0.14,0.9c0.04,0.25,0.07,0.46,0.09,0.63c0.02,0.17,0.03,0.34,0.03,0.52
		c-0.13-0.38-0.25-0.7-0.37-0.96c-0.12-0.26-0.25-0.48-0.4-0.64c-0.14-0.16-0.31-0.28-0.51-0.35c-0.16-0.06-0.35-0.09-0.55-0.1
		l-0.01-0.01h-12.55h-0.81c-0.18,0-0.31-0.04-0.39-0.1c-0.08-0.07-0.13-0.15-0.15-0.25c-0.03-0.1-0.05-0.2-0.06-0.31
		c-0.02-0.11-0.06-0.2-0.12-0.27c-0.09-0.11-0.18-0.21-0.28-0.3c-0.1-0.09-0.21-0.18-0.31-0.27c0.03,0.81,0.07,1.56,0.11,2.25
		s0.11,1.44,0.19,2.25c-0.04-0.14-0.16-0.38-0.35-0.72s-0.42-0.68-0.68-1.02c-0.26-0.34-0.52-0.64-0.77-0.9
		c-0.26-0.26-0.47-0.4-0.65-0.4c-0.26,0-0.51,0.05-0.74,0.16s-0.46,0.25-0.66,0.42c-0.2,0.17-0.38,0.37-0.53,0.58
		s-0.27,0.43-0.37,0.65c-0.05-0.24-0.15-0.46-0.28-0.68s-0.3-0.4-0.5-0.56s-0.42-0.29-0.65-0.39c-0.24-0.1-0.48-0.15-0.73-0.15
		h-0.89h-0.08c-0.25,0-0.47,0-0.67-0.01c-0.2-0.01-0.3-0.01-0.3-0.02c0,0,0.01,0.02,0.02,0.03h-0.75c-0.01-0.03-0.03-0.09-0.07-0.18
		s-0.08-0.18-0.12-0.27c-0.04-0.1-0.08-0.18-0.11-0.27s-0.05-0.13-0.05-0.15c0-0.04,0.03-0.15,0.1-0.31s0.17-0.36,0.31-0.58
		c0.15-0.22,0.33-0.44,0.56-0.67s0.5-0.42,0.81-0.58c0.32-0.16,0.69-0.27,1.11-0.33c0.42-0.06,0.91-0.02,1.44,0.1
		c0.54,0.13,1.13,0.37,1.79,0.72s1.38,0.85,2.18,1.49l-0.21-0.61c-0.38-0.38-0.77-0.73-1.19-1.06c-0.42-0.33-0.87-0.62-1.34-0.87
		c-0.47-0.25-0.97-0.44-1.48-0.59c-0.52-0.14-1.05-0.22-1.6-0.22c-0.37,0-0.76,0.08-1.19,0.25c-0.42,0.17-0.82,0.39-1.18,0.68
		c-0.36,0.29-0.66,0.61-0.9,0.98c-0.24,0.37-0.36,0.75-0.36,1.15c0,0.13,0.04,0.26,0.11,0.38c0.07,0.12,0.16,0.24,0.26,0.36
		c0.1,0.11,0.21,0.22,0.31,0.31s0.2,0.19,0.29,0.29h-2.44l0.95,0.95h1.4v8.69c-0.01,0,0.03,0.05,0.13,0.14s0.2,0.2,0.32,0.32
		c0.14,0.14,0.3,0.29,0.48,0.47v-9.63h2.24c0.23,0,0.44,0.02,0.63,0.07c0.21,0.06,0.4,0.17,0.56,0.33c0.17,0.16,0.31,0.4,0.44,0.73
		c-0.51,0.11-0.91,0.33-1.22,0.66c-0.31,0.33-0.49,0.69-0.56,1.07s0,0.74,0.21,1.06c0.21,0.33,0.57,0.54,1.08,0.62
		c0.16,0.03,0.32,0.02,0.48-0.04c0.16-0.06,0.3-0.15,0.44-0.26c0.13-0.11,0.26-0.24,0.36-0.39s0.19-0.29,0.26-0.43
		c0.08,0.13,0.16,0.26,0.26,0.39s0.2,0.24,0.32,0.34c0.12,0.1,0.25,0.17,0.39,0.22c0.14,0.05,0.29,0.06,0.45,0.04
		c0.39-0.05,0.68-0.16,0.88-0.31c0.2-0.16,0.33-0.34,0.39-0.54c0.06-0.2,0.06-0.42-0.01-0.66c-0.06-0.24-0.17-0.46-0.31-0.67
		c-0.15-0.21-0.32-0.4-0.52-0.56s-0.41-0.28-0.63-0.35c0-0.11,0.03-0.21,0.1-0.3c0.07-0.09,0.16-0.17,0.27-0.23
		c0.11-0.06,0.22-0.12,0.33-0.15c0.11-0.04,0.22-0.06,0.31-0.06c0.17,0,0.37,0.09,0.58,0.26s0.41,0.38,0.59,0.62
		c0.18,0.24,0.33,0.49,0.44,0.74s0.18,0.46,0.18,0.62l-0.06,5.94c0.18,0.18,0.35,0.34,0.5,0.48c0.12,0.12,0.23,0.23,0.34,0.32
		c0.11,0.1,0.17,0.15,0.18,0.15v-9.71h1.1h0.6c0.26,0,0.51,0.03,0.74,0.09c0.24,0.06,0.43,0.16,0.59,0.3
		c0.16,0.14,0.21,0.35,0.17,0.64c-0.27,0-0.49,0.06-0.66,0.19c-0.17,0.12-0.3,0.28-0.38,0.48c-0.08,0.19-0.12,0.4-0.11,0.63
		c0.01,0.23,0.05,0.44,0.14,0.63c0.09,0.19,0.21,0.35,0.38,0.48c0.17,0.13,0.37,0.19,0.6,0.19c0.16,0,0.31-0.03,0.45-0.1
		c0.14-0.07,0.26-0.16,0.37-0.27c0.11-0.11,0.19-0.24,0.26-0.39s0.1-0.3,0.1-0.46c0.24-0.15,0.48-0.2,0.72-0.14
		c0.24,0.05,0.45,0.17,0.63,0.35s0.3,0.41,0.38,0.67c0.08,0.26,0.06,0.52-0.05,0.78c-0.19-0.03-0.38-0.03-0.57,0.02
		s-0.36,0.12-0.52,0.22c-0.16,0.1-0.28,0.24-0.37,0.4c-0.09,0.17-0.14,0.36-0.14,0.57c0,0.38,0.11,0.67,0.32,0.89
		c0.21,0.21,0.52,0.32,0.9,0.32c0.66,0,1.09-0.3,1.29-0.9c0.37,0.17,0.67,0.38,0.91,0.63s0.45,0.52,0.62,0.82
		c0.17,0.3,0.32,0.62,0.44,0.96s0.24,0.69,0.37,1.04c0.06,0.09,0.12,0.17,0.18,0.24c0.05,0.06,0.1,0.12,0.13,0.18
		c0.03,0.05,0.06,0.09,0.08,0.11v-6.84c0.15-0.05,0.3-0.09,0.44-0.11c0.14-0.02,0.28-0.02,0.42-0.02c0.28,0,0.55,0.03,0.8,0.08
		s0.46,0.14,0.64,0.27c0.17,0.12,0.29,0.29,0.35,0.49c0.06,0.21,0.04,0.46-0.06,0.76c-0.11-0.25-0.28-0.4-0.52-0.45
		s-0.47-0.08-0.71-0.08c-0.11,0-0.21,0.04-0.31,0.14c-0.1,0.09-0.18,0.21-0.24,0.35c-0.06,0.14-0.09,0.29-0.09,0.46
		s0.05,0.32,0.14,0.46c0.1,0.14,0.25,0.26,0.47,0.35c0.22,0.09,0.5,0.14,0.86,0.14c0.21,0,0.4-0.05,0.56-0.14
		c0.16-0.09,0.29-0.21,0.39-0.36c0.1-0.15,0.18-0.32,0.23-0.51c0.05-0.19,0.07-0.38,0.07-0.57c0-0.42-0.1-0.8-0.31-1.14
		s-0.47-0.62-0.79-0.85s-0.69-0.38-1.1-0.47c-0.41-0.09-0.82-0.09-1.24,0v-1.52h4.47c0.11,0.01,0.21,0.04,0.29,0.07
		c0.19,0.08,0.34,0.21,0.45,0.38s0.19,0.38,0.24,0.62c0.05,0.24,0.07,0.5,0.07,0.78v7.13l0.45,0.48c0.12,0.12,0.23,0.23,0.32,0.33
		c0.1,0.1,0.16,0.15,0.18,0.15v-9.95h2.33c-0.16,0.15-0.31,0.31-0.43,0.49c-0.21,0.31-0.31,0.65-0.31,1.04
		c0,0.38,0.11,0.69,0.34,0.94c0.23,0.25,0.53,0.37,0.92,0.37c0.14,0,0.28-0.02,0.42-0.07c0.14-0.05,0.27-0.12,0.38-0.2
		c0.11-0.09,0.2-0.19,0.27-0.31c0.07-0.12,0.11-0.25,0.11-0.4c0-0.18-0.05-0.36-0.16-0.52s-0.22-0.31-0.34-0.44
		c0.04-0.1,0.13-0.19,0.27-0.29c0.14-0.1,0.29-0.19,0.46-0.27s0.33-0.16,0.5-0.21s0.29-0.08,0.38-0.08c0.34,0,0.63,0.11,0.86,0.34
		c0.23,0.23,0.34,0.51,0.34,0.86c0,0.34-0.14,0.67-0.42,0.98c-0.28,0.31-0.62,0.59-1.02,0.82c-0.4,0.24-0.81,0.42-1.24,0.56
		c-0.43,0.14-0.79,0.21-1.08,0.19l-0.55-0.02l1.5,1.98c0.43-0.01,0.86,0.03,1.28,0.14s0.83,0.26,1.22,0.46
		c0.39,0.2,0.75,0.45,1.08,0.74c0.33,0.29,0.62,0.61,0.86,0.97c0.18,0.28,0.37,0.56,0.55,0.84c0.18,0.28,0.38,0.55,0.6,0.81v-9.71
		h1.21h0.89h0.32v8.79c0.17,0.18,0.33,0.34,0.47,0.47c0.12,0.12,0.23,0.23,0.32,0.32s0.15,0.15,0.16,0.15v-9.73h1.56h1.06h4.74v0.61
		c-1.01,0.31-1.98,0.71-2.92,1.21c-0.94,0.49-1.84,1.05-2.71,1.66l1.23,1.69c0.83,0.05,1.51,0.23,2.06,0.54
		c0.54,0.31,0.99,0.66,1.35,1.06c0.35,0.4,0.64,0.82,0.86,1.25c0.22,0.43,0.42,0.8,0.61,1.1c0.14,0.16,0.23,0.27,0.28,0.33
		c0.05,0.06,0.12,0.12,0.2,0.17v-9.63h2.06l-0.97-0.95H235.6z M214.01,55.99c-0.12-0.4-0.31-0.75-0.57-1.06s-0.57-0.58-0.93-0.79
		c-0.01-0.46-0.1-0.87-0.27-1.23c-0.17-0.35-0.37-0.66-0.6-0.93c-0.24-0.26-0.49-0.49-0.77-0.68s-0.53-0.34-0.77-0.46
		c-0.24-0.12-0.44-0.21-0.6-0.27c-0.16-0.06-0.25-0.1-0.26-0.12c-0.08-0.15-0.14-0.31-0.21-0.47s-0.14-0.31-0.23-0.45h2.34
		c0.03,0.38,0.13,0.73,0.31,1.05s0.39,0.61,0.65,0.85c0.26,0.25,0.55,0.45,0.88,0.61c0.33,0.16,0.67,0.25,1.02,0.28V55.99z
		 M214.01,51.38c-0.18-0.04-0.39-0.09-0.61-0.13s-0.44-0.11-0.64-0.2c-0.2-0.09-0.37-0.22-0.5-0.4c-0.13-0.17-0.2-0.41-0.2-0.71
		c0-0.06,0.01-0.15,0.03-0.25c0.02-0.1,0.08-0.15,0.18-0.15h1.74V51.38z M231.69,48.59h-0.92h-0.21c-0.1-0.06-0.17-0.15-0.22-0.24
		c-0.05-0.1-0.09-0.2-0.11-0.31c-0.03-0.11-0.05-0.21-0.06-0.32s-0.03-0.2-0.05-0.29l-0.36-0.44c0,0-0.01-0.01-0.01-0.02
		c0,0-0.01-0.01-0.01-0.01l-0.12-0.14v0.05c-0.23-0.2-0.49-0.37-0.8-0.48c-0.37-0.12-0.77-0.2-1.21-0.22
		c-0.44-0.02-0.84-0.04-1.21-0.06c-0.37-0.02-0.68-0.05-0.93-0.11c-0.25-0.06-0.37-0.19-0.37-0.38c0-0.18,0.11-0.33,0.34-0.45
		c0.23-0.12,0.49-0.21,0.78-0.28c0.3-0.07,0.59-0.12,0.88-0.14c0.29-0.03,0.5-0.04,0.61-0.04c0.68,0,1.31,0.07,1.9,0.22
		c0.59,0.15,1.12,0.37,1.59,0.69c0.47,0.31,0.86,0.71,1.18,1.2c0.32,0.49,0.55,1.08,0.7,1.78H231.69z M241.3,56.83
		c-0.38-0.8-0.88-1.46-1.52-2.01c-0.63-0.54-1.35-0.98-2.16-1.31c0.59-0.43,1.18-0.8,1.77-1.11c0.59-0.31,1.22-0.59,1.91-0.82V56.83
		z"/>
	<path class="st5" d="M238.52,56.43c-0.25,0-0.46,0.09-0.64,0.28c-0.18,0.19-0.27,0.41-0.27,0.65c0,0.27,0.1,0.51,0.31,0.72
		c0.2,0.21,0.45,0.31,0.73,0.31c0.25,0,0.46-0.1,0.63-0.3c0.17-0.2,0.26-0.42,0.26-0.67c0-0.27-0.1-0.5-0.3-0.7
		C239.04,56.53,238.8,56.43,238.52,56.43z"/>
	<path class="st5" d="M257.72,52.13c-0.17-0.3-0.4-0.58-0.68-0.86c-0.28-0.28-0.62-0.53-1.02-0.74l-0.05,0.03
		c-0.05,0.16-0.16,0.35-0.32,0.58c-0.16,0.23-0.34,0.45-0.55,0.66c-0.2,0.21-0.42,0.4-0.64,0.55c-0.22,0.15-0.42,0.23-0.59,0.23
		l-0.03-0.03c0.1-0.14,0.19-0.29,0.27-0.45c0.09-0.16,0.13-0.33,0.13-0.5c0-0.37-0.12-0.65-0.37-0.85c-0.25-0.2-0.54-0.3-0.89-0.3
		c-0.45,0-0.81,0.13-1.08,0.4c-0.27,0.27-0.4,0.63-0.4,1.08c0,0.3,0.06,0.57,0.18,0.81c0.12,0.24,0.28,0.45,0.48,0.61
		c0.2,0.17,0.43,0.29,0.69,0.38s0.53,0.13,0.82,0.13c0.19,0,0.41-0.02,0.64-0.06c0.23-0.04,0.46-0.09,0.68-0.16
		c0.22-0.07,0.43-0.16,0.63-0.27s0.36-0.25,0.49-0.41c0.09-0.11,0.17-0.21,0.26-0.31c0.09-0.1,0.18-0.2,0.27-0.28
		c0.1,0,0.18,0.06,0.25,0.18c0.07,0.12,0.12,0.25,0.16,0.4c0.04,0.15,0.07,0.3,0.09,0.46s0.03,0.27,0.03,0.33
		c0,0.32-0.08,0.63-0.23,0.93c-0.16,0.3-0.36,0.56-0.61,0.78s-0.54,0.41-0.85,0.54c-0.31,0.13-0.62,0.2-0.92,0.2
		c-0.74,0-1.4-0.17-1.98-0.52c-0.58-0.35-1.08-0.79-1.51-1.34c-0.43-0.54-0.79-1.14-1.09-1.8s-0.53-1.29-0.7-1.9l-0.6-0.19
		c0.14,0.46,0.29,0.96,0.47,1.5c0.17,0.54,0.37,1.08,0.59,1.62c0.22,0.54,0.48,1.07,0.77,1.57c0.29,0.51,0.62,0.95,0.99,1.35
		s0.79,0.71,1.27,0.94c0.48,0.24,1.01,0.36,1.6,0.36c0.57,0,1.09-0.11,1.56-0.33c0.47-0.22,0.88-0.52,1.22-0.9
		c0.34-0.38,0.6-0.81,0.78-1.31c0.18-0.5,0.27-1.02,0.27-1.57c0-0.18-0.04-0.41-0.12-0.68C258.02,52.71,257.89,52.42,257.72,52.13z"
		/>
	<path class="st5" d="M282.86,49.54h1.34c0-0.02-0.05-0.08-0.15-0.18c-0.1-0.1-0.21-0.2-0.33-0.32c-0.14-0.13-0.3-0.28-0.47-0.45
		h-4.66h-0.98h-7.23h-0.97h-7.11h-1.03h-0.74c-0.01-0.03-0.03-0.09-0.07-0.18s-0.08-0.18-0.12-0.27c-0.04-0.1-0.08-0.18-0.11-0.27
		s-0.05-0.13-0.05-0.15c0-0.04,0.03-0.15,0.1-0.31s0.17-0.36,0.31-0.58c0.15-0.22,0.33-0.44,0.56-0.67s0.5-0.42,0.81-0.58
		c0.32-0.16,0.69-0.27,1.11-0.33c0.42-0.06,0.91-0.02,1.44,0.1c0.54,0.13,1.13,0.37,1.79,0.72s1.38,0.85,2.18,1.49l-0.21-0.61
		c-0.38-0.38-0.77-0.73-1.19-1.06c-0.42-0.33-0.87-0.62-1.34-0.87c-0.47-0.25-0.97-0.44-1.48-0.59c-0.52-0.14-1.05-0.22-1.6-0.22
		c-0.37,0-0.76,0.08-1.19,0.25c-0.42,0.17-0.82,0.39-1.18,0.68c-0.36,0.29-0.66,0.61-0.9,0.98c-0.24,0.37-0.36,0.75-0.36,1.15
		c0,0.13,0.04,0.26,0.11,0.38c0.07,0.12,0.16,0.24,0.26,0.36c0.1,0.11,0.21,0.22,0.31,0.31s0.2,0.19,0.29,0.29h-1.42h-1.02h-10
		l0.95,0.95h10h1.06h0.34v8.69c-0.01,0,0.03,0.05,0.13,0.14s0.2,0.2,0.32,0.32c0.14,0.14,0.3,0.29,0.48,0.47v-9.63h1.34h1.07h5.05
		v0.65c-1.01,0.33-1.98,0.75-2.92,1.23c-0.94,0.49-1.84,1.05-2.73,1.67l1.23,1.73c0.42,0.03,0.83,0.12,1.23,0.25
		c0.4,0.13,0.79,0.31,1.15,0.52c0.45,0.27,0.85,0.57,1.21,0.9c0.36,0.33,0.66,0.77,0.9,1.32c0.05,0.13,0.1,0.26,0.13,0.4
		s0.06,0.27,0.09,0.4c0.03,0.12,0.05,0.24,0.07,0.34c0.02,0.1,0.05,0.18,0.1,0.23c0.07,0.12,0.15,0.18,0.23,0.18
		s0.16,0.05,0.25,0.16v-9.98h1.08c0,0.01,0.01,0.01,0.02,0.02c0.15,0.18,0.26,0.35,0.33,0.5s0.15,0.28,0.23,0.4
		c0.08,0.11,0.2,0.2,0.35,0.26c0.15,0.06,0.38,0.09,0.69,0.09c0.19,0,0.37,0,0.54-0.01c0.17,0,0.33,0,0.48,0.01
		c0.16,0.01,0.31,0.04,0.47,0.08c0.16,0.04,0.33,0.12,0.51,0.23c-0.51,0.4-0.99,0.8-1.46,1.19c-0.47,0.4-0.94,0.81-1.41,1.24
		l1.27,1.66c0.53,0,1.03,0.1,1.52,0.3c0.48,0.2,0.93,0.46,1.34,0.8c0.61,0.49,1.12,1.1,1.53,1.81c0.05,0.09,0.11,0.19,0.16,0.32
		s0.11,0.24,0.18,0.32c0.06,0.08,0.13,0.15,0.19,0.21s0.13,0.13,0.21,0.21v-9.63h1.08h0.97h1.69c-0.19,0.27-0.37,0.52-0.54,0.75
		c-0.17,0.23-0.31,0.47-0.44,0.71s-0.23,0.5-0.31,0.77s-0.11,0.59-0.11,0.94c0,0.32,0.04,0.64,0.11,0.96s0.16,0.63,0.24,0.94
		c0.09,0.31,0.17,0.62,0.24,0.94s0.11,0.63,0.11,0.95c0,0.26-0.02,0.48-0.06,0.68s-0.1,0.37-0.19,0.52
		c-0.09,0.15-0.21,0.29-0.35,0.43c-0.14,0.13-0.31,0.28-0.5,0.43c-0.05,0.03-0.13,0.06-0.23,0.09c-0.1,0.03-0.2,0.06-0.3,0.09
		s-0.19,0.07-0.27,0.1c-0.08,0.04-0.11,0.09-0.11,0.15c0,0.11,0.05,0.2,0.14,0.28c0.09,0.08,0.2,0.12,0.31,0.12
		c0.31,0,0.63-0.09,0.96-0.28c0.33-0.19,0.63-0.43,0.9-0.72c0.27-0.29,0.49-0.62,0.66-0.98c0.17-0.36,0.26-0.72,0.26-1.07
		c0-0.41-0.04-0.81-0.1-1.22c-0.07-0.4-0.15-0.81-0.23-1.22c-0.08-0.41-0.15-0.82-0.22-1.23c-0.06-0.41-0.1-0.82-0.1-1.24
		c0-0.58,0.13-1.04,0.4-1.39C281.78,49.71,282.23,49.54,282.86,49.54z M268.3,56.7c-0.41-0.72-0.93-1.34-1.56-1.85
		c-0.63-0.51-1.33-0.93-2.09-1.25c0.58-0.39,1.17-0.74,1.77-1.07c0.6-0.33,1.23-0.6,1.87-0.83V56.7z M276.52,56.72
		c-0.18-0.26-0.41-0.52-0.68-0.8c-0.27-0.27-0.56-0.54-0.86-0.8s-0.62-0.49-0.94-0.69c-0.32-0.2-0.63-0.36-0.92-0.47
		c0.28-0.29,0.58-0.59,0.89-0.91c0.31-0.32,0.64-0.58,0.98-0.8c0.27,0.2,0.53,0.42,0.77,0.64c0.25,0.22,0.5,0.44,0.76,0.67V56.72z
		 M276.52,52.55c-0.24-0.2-0.49-0.4-0.77-0.58c-0.27-0.18-0.52-0.38-0.73-0.6c-0.2-0.19-0.39-0.37-0.56-0.52
		c-0.17-0.16-0.33-0.3-0.49-0.44c-0.16-0.14-0.33-0.28-0.52-0.42s-0.39-0.29-0.63-0.45h3.69V52.55z"/>
	<path class="st5" d="M290.56,56.25c-0.31-0.48-0.7-0.89-1.17-1.22s-0.98-0.6-1.52-0.83c-0.55-0.23-1.06-0.46-1.52-0.71
		s-0.86-0.53-1.17-0.86c-0.31-0.32-0.47-0.74-0.47-1.26c0-0.08,0.02-0.18,0.05-0.31c0.03-0.13,0.08-0.25,0.13-0.37
		c0.05-0.12,0.12-0.22,0.2-0.32c0.08-0.09,0.17-0.14,0.27-0.15c0.11,0.7,0.34,1.26,0.71,1.69c0.37,0.43,0.92,0.64,1.68,0.64
		c0.56,0,0.99-0.16,1.29-0.49c0.3-0.33,0.45-0.77,0.45-1.33c0-0.35-0.06-0.67-0.19-0.96c-0.13-0.28-0.31-0.52-0.53-0.72
		c-0.23-0.19-0.49-0.34-0.79-0.45c-0.3-0.11-0.62-0.16-0.95-0.16c-0.43,0-0.84,0.08-1.23,0.23s-0.73,0.36-1.02,0.64
		c-0.29,0.27-0.52,0.6-0.69,0.97s-0.26,0.78-0.26,1.22c0,0.73,0.16,1.34,0.49,1.82c0.33,0.48,0.74,0.89,1.23,1.23
		s1.02,0.62,1.6,0.85c0.58,0.24,1.11,0.47,1.6,0.7s0.9,0.49,1.23,0.77c0.33,0.28,0.49,0.63,0.49,1.05c0,0.27-0.08,0.49-0.24,0.66
		l0.76,0.24c0.02-0.12,0.04-0.24,0.05-0.36c0.01-0.12,0.02-0.24,0.02-0.35C291.02,57.36,290.87,56.73,290.56,56.25z M286.22,49.75
		c0.18-0.04,0.41-0.07,0.69-0.09c0.28-0.02,0.55,0,0.81,0.05c0.26,0.05,0.49,0.14,0.68,0.27c0.19,0.13,0.28,0.33,0.28,0.59
		c0,0.15-0.04,0.28-0.11,0.39s-0.17,0.2-0.29,0.28c-0.12,0.08-0.25,0.14-0.38,0.18c-0.13,0.04-0.27,0.06-0.4,0.06
		c-0.19,0-0.38-0.06-0.55-0.17c-0.17-0.11-0.32-0.25-0.45-0.42c-0.13-0.17-0.22-0.35-0.28-0.56
		C286.17,50.12,286.16,49.93,286.22,49.75z"/>
</g>
</svg>
