<?xml version="1.0" encoding="utf-8"?>
<!-- Generator: Adobe Illustrator 24.3.0, SVG Export Plug-In . SVG Version: 6.00 Build 0)  -->
<svg version="1.1" id="Layer_1" xmlns="http://www.w3.org/2000/svg" xmlns:xlink="http://www.w3.org/1999/xlink" x="0px" y="0px"
	 viewBox="0 0 250 74" style="enable-background:new 0 0 250 74;" xml:space="preserve">
<style type="text/css">
	.st0{fill:#FEFEFE;}
	.st1{fill:#021745;}
	.st2{fill:#000529;}
	.st3{fill:#0164E9;}
	.st4{fill:#021643;}
	.st5{fill:#0163E9;}
	.st6{fill:#0164EA;}
	.st7{fill:#00052B;}
	.st8{fill:#0266EA;}
	.st9{fill:#021644;}
	.st10{fill:#021744;}
	.st11{fill:#00002C;}
	.st12{fill:#141E30;}
	.st13{fill:#141F31;}
	.st14{fill:#172134;}
	.st15{fill:#070F21;}
	.st16{fill:#162131;}
	.st17{fill:#142034;}
	.st18{fill:#111B2D;}
	.st19{fill:#131D2F;}
	.st20{fill:#151E31;}
	.st21{fill:#121D2E;}
	.st22{fill:#162031;}
	.st23{fill:#131E30;}
	.st24{fill:#162033;}
	.st25{fill:#152032;}
	.st26{fill:#141F32;}
	.st27{fill:#141D30;}
	.st28{fill:#F7F8F8;}
	.st29{fill:#FCFBFC;}
	.st30{fill:#F8F8F8;}
	.st31{fill:#F6F6F7;}
	.st32{fill:#FBFCFC;}
	.st33{fill:#00071A;}
	.st34{fill:#091534;}
	.st35{fill:#FAFAFB;}
	.st36{fill:#151C31;}
	.st37{fill:#162036;}
	.st38{fill:#162037;}
</style>
<g>
	<path class="st0" d="M166.8,31.8c1.9-0.2,3.9,0.4,5.3,1.7c1.1,1.1,1.7,2.6,1.9,4.1c0.1,1.3,0.1,2.7-0.4,4c-0.5,1.4-1.5,2.7-2.8,3.4
		c-1.6,0.9-3.5,1-5.3,0.5c-1.4-0.4-2.7-1.4-3.4-2.7c-1-1.7-1.2-3.8-0.8-5.8c0.2-1.4,1-2.8,2-3.8C164.2,32.5,165.5,32,166.8,31.8z"/>
</g>
<g>
	<g>
		<path class="st1" d="M39.9,4c1.1-0.4,2.4-0.3,3.4,0.2c6.3,2.7,12.7,5.5,19,8.2c0.6,0.2,1,0.9,0.7,1.5c-0.4,0.8-1.6,0.7-2.1,1.3
			c0,0.9,0,1.9,0,2.8c0.2,0.3,0.7,0.5,0.9,0.9c0.3,0.6,0,1.3-0.4,1.7c0.1,0.7,0.5,1.4,0.7,2.1c0.2,0.8,0.5,1.5,0.7,2.3
			c0.1,0.3-0.2,0.6-0.4,0.8c-1.1,0.6-2.4,0.7-3.5,0.3c-0.4-0.1-0.8-0.3-0.9-0.7c0.4-1.5,1-3,1.5-4.5c-0.1-0.4-0.5-0.7-0.5-1.2
			c-0.1-0.7,0.4-1.3,1-1.5c0-0.9,0-1.7,0-2.6c-2,0.8-3.9,1.6-5.9,2.5c0,0.3-0.2,0.6-0.3,0.9c-1.9-1.8-4.3-2.9-6.9-3.6
			c-3-0.8-6.2-1-9.3-0.4c-2.4,0.5-4.9,1.3-6.9,2.8c-0.6,0.4-1,0.9-1.6,1.2c-0.2-0.4-0.3-0.7-0.4-1.1c-1.9-0.6-3.7-1.6-5.5-2.3
			c-1-0.4-2-0.8-2.9-1.3c-0.7-0.4-0.6-1.5,0.1-1.8C26.8,9.7,33.3,6.8,39.9,4z M39.7,14.4c1.2,0.1,2.3,0.1,3.5,0
			C42,14.3,40.8,14.2,39.7,14.4z"/>
	</g>
</g>
<g>
	<path class="st2" d="M39.7,14.4c1.2-0.2,2.3-0.1,3.5,0C42,14.5,40.8,14.6,39.7,14.4z"/>
</g>
<g>
	<path class="st3" d="M205.9,16.9c1.5-0.2,3-0.4,4.5-0.3c0.5,0,1.1,0.4,1.2,0.9c0.1,0.7,0,1.4,0,2.1c0,8.2,0,16.4,0,24.7
		c0,1.1,0.3,2.3,1,3.1c0.5,0.6,1.3,0.9,2,1.3c0,0.5-0.3,0.9-0.7,1.2c-1,0.9-2.4,1.4-3.7,1.4c-0.9,0-1.8-0.1-2.6-0.4
		c-1.3-0.6-2.4-1.8-2.7-3.2c-0.4-1.3-0.3-2.7-0.3-4c0-7.9,0-15.9,0-23.8c0-0.7-0.5-1.5,0-2.2C204.9,17.1,205.4,16.9,205.9,16.9z"/>
	<path class="st3" d="M19.7,28.1c-0.2-0.5,0.4-1,0.9-0.9c4.1,0.6,8,2.4,11.5,4.5c2.4,1.5,4.7,3.4,6.7,5.4c0.9,0.8,1.7,1.8,2.6,2.6
		c1.1-1.2,2.2-2.4,3.4-3.5c2.4-2.2,5-4.1,7.9-5.5c2.1-1,4.2-1.7,6.5-2c1.2-0.2,2.4-0.3,3.7-0.2c0,0.2,0.1,0.5-0.1,0.6
		c-0.8,0.5-1.8,0.9-2.6,1.5c-4.9,3.2-8.9,7.4-12.5,12c-1.9,2.5-3.5,5.1-5.1,7.7c-0.2,0.3-0.4,0.8-0.8,0.9c-0.5,0.2-1-0.1-1.3-0.6
		c-0.9-1.3-1.9-2.6-2.8-3.9C32.7,40.1,27.3,33.9,20.8,29C20.4,28.7,19.9,28.5,19.7,28.1z"/>
</g>
<g>
	<g>
		<path class="st4" d="M76,18.2c0-0.6,0.4-1.1,1-1.2c0.7-0.1,1.4,0,2.1,0c8.3-0.1,16.6,0,24.8,0c0.7,0,1.3,0.5,1.3,1.2
			c0,1.4,0,2.8,0,4.2c0,0.5-0.3,1.1-0.8,1.2c-0.8,0.2-1.6,0-2.4,0c-1.2,0-2.5,0-3.7,0c-1.1,0-2.3,0-3.4,0c-0.4,0-0.6,0.4-0.6,0.7
			c0,8.5,0,17,0,25.6c0,0.6-0.6,1.1-1.2,1.1c-1.6,0-3.2,0-4.8,0c-0.6,0-1.2-0.5-1.2-1.1c0-8.3,0-16.6,0-24.8c0-0.5,0.1-1-0.2-1.4
			c-0.2,0-0.4,0-0.5,0c-2.6,0.1-5.2,0-7.8,0c-0.5,0-1.1,0.1-1.6-0.1c-0.5-0.1-0.9-0.6-0.9-1.2C76,21,76,19.6,76,18.2z M87.7,50.9
			c0.7,0.2,1.4,0.1,2.1,0.1c1.1,0,2.2,0.1,3.3-0.1c-1-0.1-1.9-0.1-2.9-0.1C89.4,50.8,88.5,50.8,87.7,50.9z"/>
	</g>
	<path class="st4" d="M144.1,19.8c0.3,0,0.5,0,0.8,0c0.4,0.2,0.7,0.5,0.7,0.9c0,1.8,0,3.6,0,5.4c0,0.2,0.2,0.5,0.4,0.4
		c1.7,0,3.5,0,5.2,0c0.5,0,0.9,0.3,1,0.8c0.1,0.8,0,1.6,0.1,2.4c0,0.6,0.1,1.2-0.2,1.8c-0.1,0.4-0.5,0.6-0.9,0.6c-1.7,0-3.5,0-5.2,0
		c-0.3,0-0.5,0.3-0.4,0.6c0,3.2,0,6.4,0,9.6c0,1.1,0.3,2.3,1.2,2.9c1.2,0.8,2.7,0.6,4,0.2c0.3-0.1,0.8-0.3,1.1,0
		c0.3,0.3,0.4,0.7,0.4,1.1c0.1,1.1,0.4,2.1,0.4,3.2c0,0.5-0.4,0.8-0.7,1c-1.6,0.6-3.4,0.8-5.1,0.8c-2.2-0.1-4.6-0.7-6.2-2.3
		c-1.5-1.4-2-3.6-2-5.6c0-3.7,0-7.4,0-11.1c0.1-0.3-0.3-0.5-0.5-0.5c-1.1,0-2.2,0-3.3,0c-0.5,0-1-0.5-1-1c0-1.1,0-2.2,0-3.3
		c0-0.6,0.3-1.1,0.9-1.2c1.1-0.1,2.2,0,3.3,0c0.2,0,0.4-0.1,0.5-0.2c0-1.6,0-3.1,0-4.7c0.2-0.4,0.4-0.8,0.9-0.9
		C141,20.4,142.5,20.2,144.1,19.8z"/>
	<g>
		<path class="st4" d="M165.8,26.1c3.5-0.3,7.2,0.3,10.1,2.4c2.2,1.5,3.8,3.8,4.5,6.3c0.8,2.8,0.8,5.9-0.2,8.6
			c-0.8,2.6-2.7,4.9-5.1,6.3c-2.4,1.4-5.2,1.9-7.9,1.9c-2.8,0-5.7-0.6-8.1-2.2c-1.4-0.9-2.5-2.1-3.4-3.5c-1.3-2.2-1.9-4.7-1.9-7.2
			c0-3.4,1.3-6.8,3.8-9.1C160,27.5,162.9,26.4,165.8,26.1z M166.8,31.8c-1.3,0.2-2.6,0.6-3.5,1.5c-1.1,1-1.8,2.3-2,3.8
			c-0.4,1.9-0.1,4,0.8,5.8c0.8,1.3,2,2.2,3.4,2.7c1.7,0.5,3.7,0.4,5.3-0.5c1.4-0.7,2.4-2,2.8-3.4c0.5-1.3,0.5-2.7,0.4-4
			c-0.2-1.5-0.8-3-1.9-4.1C170.7,32.2,168.7,31.6,166.8,31.8z"/>
	</g>
	<path class="st4" d="M192,29.3c1.8-2.5,5.2-3.8,8.2-3c0.6,0.2,1.3,0.5,1.3,1.2c-0.2,1.5-0.5,2.9-0.8,4.3c-0.1,0.3-0.1,0.7-0.4,0.9
		c-0.3,0.2-0.6,0.1-0.9,0c-1.4-0.4-2.9-0.2-4.2,0.3c-1.2,0.4-2.1,1.4-2.7,2.4c-0.8,1.4-1,3-1.1,4.6c0,3.3,0,6.6,0,9.9
		c0,0.7-0.7,1.2-1.3,1.1c-1.5,0-3,0-4.5,0c-0.6,0-1.2-0.5-1.2-1.1c0-7.1,0-14.3,0-21.4c0-0.5-0.1-1,0.2-1.5c0.2-0.4,0.7-0.5,1.2-0.5
		c1.4,0,2.8,0,4.2,0c0.6-0.1,1.3,0.4,1.3,1.1c0,0.9,0,1.9,0,2.8C191.6,30.1,191.8,29.7,192,29.3z"/>
	<g>
		<path class="st4" d="M105.9,27.8c0-0.6,0.4-1.2,1-1.2c1.6,0,3.1,0,4.7,0c0.6,0,1.3,0.4,1.3,1.1c0,4.2,0,8.5,0,12.7
			c0,1.5,0.4,3.1,1.6,4.2c1.8,1.6,4.7,1.6,6.7,0.3c1.4-0.9,2.3-2.5,2.5-4.1c0.1-0.7,0.1-1.5,0.1-2.2c0-3.6,0-7.3,0-10.9
			c0-0.6,0.6-1,1.1-1.1c1.5,0,3.1,0,4.6,0c0.6,0,1.2,0.4,1.2,1.1c0,5.7,0,11.4,0,17c0,1.7,0,3.4,0,5.1c0,0.6-0.4,1.2-1.1,1.2
			c-1.4,0-2.9,0-4.3,0c-0.5,0-1.1-0.3-1.3-0.9c-0.1-0.8,0-1.6-0.1-2.4c-1.2,1.6-2.9,2.9-4.9,3.5c-2.6,0.7-5.4,0.5-7.8-0.5
			c-2.3-1-4.2-3.1-4.9-5.5c-0.4-1.3-0.5-2.7-0.5-4C105.9,36.7,105.9,32.2,105.9,27.8z M112.7,27.4c0,0.4-0.1,0.7-0.1,1.1
			c0,3.4,0,6.8,0,10.2c0,0.8,0,1.5,0.1,2.3c0-0.3,0.1-0.5,0.1-0.8c0-4,0-8,0-12C112.8,28,112.8,27.7,112.7,27.4z"/>
	</g>
</g>
<g>
	<path class="st5" d="M40.1,17.9c2-0.3,4.2,0.1,5.9,1.4c1.6,1.2,2.7,3,3,5c0.4,2.1-0.4,4.4-1.8,6c-1.1,1.3-2.7,2.2-4.4,2.5
		c-2.2,0.4-4.6-0.1-6.4-1.5c-1.2-1-2.1-2.3-2.5-3.9c-0.6-2.1-0.2-4.5,1-6.2C36.1,19.5,38,18.2,40.1,17.9z"/>
</g>
<g>
	<path class="st6" d="M214.7,27.6c-0.1-0.6,0.5-1.1,1.1-1.1c1.6,0,3.3,0,4.9,0c0.6,0,1.1,0.4,1.3,0.9c0.9,2.9,2,5.8,2.9,8.6
		c0.9,2.8,1.9,5.6,2.9,8.3c1.2-3.2,2.3-6.5,3.4-9.8c0.8-2.4,1.6-4.7,2.4-7.1c0.2-0.6,0.9-1,1.5-1c1.6,0,3.2,0,4.8,0
		c0.5,0,1.1,0.5,0.9,1c-2.4,6.2-4.8,12.4-7.3,18.6c-1.2,3-2.5,6.1-3.8,9.1c-1.1,2.2-2.3,4.4-4.1,6.1c-3.2,3.3-8.1,4.8-12.6,3.7
		c-0.7-0.1-1.5-0.6-1.3-1.4c0.3-1,0.7-2.1,1.2-3.1c0.2-0.5,0.4-1,0.9-1.2c0.4-0.2,0.8,0,1.1,0.1c1.7,0.4,3.5-0.1,4.8-1.2
		c2-1.7,3.1-4.1,4.1-6.4c0-0.2,0.2-0.4,0.1-0.6c-0.6-0.8-0.8-1.8-1.2-2.7c-2.6-6.2-5-12.5-7.4-18.8
		C215.2,29.1,214.9,28.4,214.7,27.6z"/>
</g>
<g>
	<path class="st7" d="M112.7,27.4c0.1,0.3,0.1,0.5,0.1,0.8c0,4,0,8,0,12c0,0.3,0,0.5-0.1,0.8c-0.1-0.8-0.1-1.5-0.1-2.3
		c-0.1-3.4,0-6.8,0-10.2C112.7,28.2,112.7,27.8,112.7,27.4z"/>
</g>
<g>
	<path class="st8" d="M14.1,40.6c0.1-0.3,0.3-0.7,0.7-0.7c0.6,0,1.3,0,1.9,0c-0.3,1.7-0.9,3.4-1.3,5.2c-0.8,2.8-1.6,5.6-2.3,8.4
		c0.7,0.2,1.4,0.1,2.1,0.1c4.9,0.3,9.8,1.7,14.1,4c1.3,0.8,2.7,1.5,4,2.5c1.2,0.9,2.5,1.8,3.6,2.9c-1-0.5-2-1.1-3.1-1.6
		c-4.9-2.5-10.2-4.3-15.8-4.9c-2.7-0.4-5.5-0.3-8.2,0c-0.2,0.1-0.4-0.2-0.5-0.3C10.8,51,12.5,45.8,14.1,40.6z"/>
	<path class="st8" d="M65.9,40c0.6,0,1.3,0,1.9,0c0.3,0,0.6,0.2,0.6,0.4c1.6,5.2,3.3,10.4,5,15.7c0.1,0.2-0.1,0.4-0.2,0.5
		c-1.8-0.3-3.6-0.4-5.4-0.3c-0.8,0.1-1.6,0-2.4,0.2c-3.2,0.4-6.3,1-9.3,2c-2.7,0.9-5.2,2.1-7.7,3.3c-0.8,0.4-1.4,0.9-2.2,1.2
		c0.1-0.1,0.2-0.2,0.2-0.3c1.7-1.5,3.6-2.9,5.6-4c5.3-3.3,11.5-5,17.7-5.1c-0.5-2.1-1.2-4.2-1.7-6.3C67.3,44.8,66.6,42.4,65.9,40z"
		/>
	<path class="st8" d="M10,58.3c1.4-0.2,2.9-0.1,4.3-0.2c2.7,0.1,5.4,0.4,8,1c5.6,1.2,11,3.4,16,6.3c0.5,0.2,0.7,0.7,1,1.1
		c0.9,0.8,2.4,1,3.5,0.4c0.6-0.3,0.9-0.8,1.3-1.3c5.5-3.2,11.4-5.7,17.7-6.7c3.7-0.7,7.5-0.8,11.2-0.4c0.2,0,0.4,0.1,0.6,0.2
		c0.2,0.6,0.4,1.2,0.6,1.8c0.2,0.3-0.2,0.8-0.6,0.7c-3-0.4-6-0.3-9-0.1c-3.2,0.3-6.3,0.8-9.4,1.6c-3.5,0.9-6.8,2.3-9.9,4.1
		c-0.5,0.6-0.9,1.2-1.6,1.6c-1.6,1-3.9,0.9-5.4-0.3c-0.5-0.3-0.8-0.9-1.2-1.3c-2.4-1.3-4.8-2.4-7.4-3.3c-5.6-1.8-11.5-2.6-17.4-2.5
		c-1.1,0.1-2.3,0.1-3.4,0.2c-0.4,0.1-0.8-0.2-0.7-0.7c0.2-0.6,0.3-1.1,0.5-1.7C9.1,58.3,9.6,58.4,10,58.3z"/>
</g>
<g>
	<path class="st9" d="M62,40.2c0.6-0.1,1.1-0.2,1.7-0.2c0.8,3,1.6,6.1,2.5,9.1c0.2,0.9,0.5,1.8,0.6,2.7c-2.9,0.3-5.9,0.9-8.6,1.9
		c-5.7,2-10.8,5.6-14.9,10c-0.2,0.3-0.5,0.5-0.7,0.8c-0.2-3.1,0.5-6.3,1.6-9.2c2.1-5.2,6-9.7,10.9-12.4C57.2,41.5,59.5,40.7,62,40.2
		z"/>
</g>
<g>
	<path class="st10" d="M18.8,40.5c0.1-0.2,0.1-0.6,0.4-0.5c5.7,0.8,11.1,3.6,14.9,8c1.7,2,3.2,4.2,4.2,6.6c0.6,1.4,1,2.9,1.4,4.3
		c0.1,0.9,0.3,1.8,0.4,2.7c-0.1-0.2-0.1-0.5-0.2-0.7c0,0.8-0.4,1.6-1.2,1.9c-3.8-3.8-8.3-6.9-13.3-8.9c-3.1-1.2-6.3-1.9-9.6-2.2
		c0-0.7,0.3-1.4,0.5-2.1C17.2,46.6,18,43.5,18.8,40.5z"/>
</g>
<g>
	<path class="st11" d="M87.7,50.9c0.9-0.1,1.7,0,2.6,0c1,0,1.9-0.1,2.9,0.1C92,51,90.9,50.9,89.8,51C89.1,50.9,88.4,51,87.7,50.9z"
		/>
</g>
<g>
	<g>
		<path class="st12" d="M199.4,59.8c0-0.8,0-1.5,0-2.3c0.2,0,0.5,0,0.6,0c0.2,2,0,4,0.1,6c-0.2,0-0.5,0-0.7,0c0-0.1,0-0.4,0-0.6
			c-0.7,0.7-1.8,0.9-2.6,0.3c-1.3-0.8-1.2-2.9,0.1-3.7C197.7,59,198.7,59.1,199.4,59.8z M197.5,60c-1.2,0.5-1,2.6,0.2,2.9
			c0.9,0.3,1.8-0.6,1.7-1.6C199.5,60.3,198.3,59.6,197.5,60z"/>
	</g>
</g>
<g>
	<path class="st13" d="M124.8,59.2c0.5-0.9,1.5-1.5,2.5-1.6c0.1,0,0.3,0,0.5,0c0.8,0.1,1.5,0.4,2.1,0.9c-0.1,0.2-0.3,0.4-0.5,0.6
		c-0.6-0.6-1.5-1-2.4-0.7c-1.3,0.2-2,1.8-1.5,3c0.5,1.4,2.4,1.9,3.5,0.9c0.4-0.3,0.5-0.8,0.5-1.3c-0.6,0-1.2,0-1.8,0
		c0-0.2,0-0.4,0-0.7c0.9,0,1.7,0,2.6,0c0,0.6,0.1,1.3-0.2,1.9c-1,1.7-3.8,1.7-4.9,0.1C124.4,61.5,124.3,60.2,124.8,59.2z"/>
</g>
<g>
	<path class="st14" d="M160.4,57.9c0.9-0.4,2.1-0.2,2.8,0.5c-0.2,0.2-0.3,0.4-0.5,0.6c-0.5-0.6-1.5-0.9-2.2-0.4
		c-0.4,0.3-0.4,0.9,0,1.2c0.8,0.4,1.8,0.4,2.4,1.1c0.7,0.6,0.5,1.8-0.3,2.3c-1,0.7-2.4,0.4-3.4-0.3c-0.1-0.3,0.3-0.5,0.4-0.7
		c0.6,0.6,1.5,0.9,2.3,0.6c0.5-0.2,0.7-0.9,0.3-1.3c-0.5-0.5-1.2-0.5-1.8-0.8c-0.6-0.2-1.2-0.8-1.1-1.5
		C159.5,58.6,159.9,58.1,160.4,57.9z"/>
</g>
<g>
	<path class="st15" d="M87.1,57.8l0.2,0c0,1.8-0.1,3.6,0,5.4c0.8,0,1.5,0,2.3,0.1c-0.8,0.1-1.7,0.1-2.5,0.2
		C87.1,61.6,87.1,59.7,87.1,57.8z"/>
</g>
<g>
	<path class="st16" d="M87.3,57.8c0.1,0,0.4,0,0.5,0c0.1,1.6,0,3.3,0,4.9c0.9,0,1.9,0,2.8,0c0,0.2,0,0.5,0,0.7c-1.2,0-2.4,0-3.6,0
		c0.8-0.1,1.7-0.1,2.5-0.2c-0.8-0.1-1.5-0.1-2.3-0.1C87.2,61.4,87.3,59.6,87.3,57.8z"/>
</g>
<g>
	<g>
		<path class="st17" d="M93.2,59.9c0.7-0.9,2.4-1,3.2,0c0.4,0.5,0.4,1.1,0.4,1.7c-1.1,0-2.2,0-3.3,0c0.1,0.7,0.7,1.3,1.4,1.3
			c0.5,0.1,1-0.3,1.4-0.5c0.1,0.2,0.3,0.3,0.4,0.5c-0.8,0.9-2.2,1-3.1,0.3C92.6,62.3,92.5,60.8,93.2,59.9z M93.5,61
			c0.8,0,1.7,0,2.5,0c0-0.4-0.2-0.9-0.7-1C94.7,59.6,93.6,60.1,93.5,61z"/>
	</g>
</g>
<g>
	<g>
		<path class="st18" d="M99.2,59.8c0.7-0.6,1.7-0.7,2.5-0.4c0.5,0.2,0.9,0.7,0.9,1.3c0.1,0.9,0,1.9,0.1,2.8c-0.2,0-0.5,0-0.7,0
			c0-0.1,0-0.4-0.1-0.5c-0.7,0.9-2.5,0.9-2.9-0.3c0-0.2,0-0.4,0-0.6c0.2-0.6,0.8-0.9,1.4-1c0.5,0,1.1,0,1.6,0
			c-0.1-0.3-0.2-0.7-0.5-0.9c-0.6-0.4-1.4-0.1-1.9,0.3C99.5,60.2,99.4,60,99.2,59.8z M100.2,61.6c-0.3,0.1-0.6,0.6-0.3,0.9
			c0.7,0.8,2.3,0.1,2.1-1C101.4,61.5,100.7,61.4,100.2,61.6z"/>
	</g>
</g>
<g>
	<path class="st19" d="M106.1,59.9c0.5-0.7,1.6-0.9,2.3-0.3c-0.1,0.2-0.2,0.4-0.3,0.6c-0.2-0.1-0.5-0.2-0.8-0.3
		c-0.6,0.1-1,0.5-1.1,1.1c0,0.8,0,1.6,0,2.5c-0.3,0-0.5,0-0.7,0c0-1.4,0-2.8,0-4.2c0.2,0,0.5,0,0.7,0
		C106.1,59.5,106.1,59.7,106.1,59.9z"/>
	<path class="st19" d="M178.5,59.7c0.8-0.7,2.1-0.6,2.9,0.1c-0.2,0.2-0.3,0.4-0.4,0.5c-0.4-0.4-1-0.6-1.6-0.4
		c-1.1,0.4-1.2,2.3-0.1,2.8c0.6,0.3,1.2,0.1,1.7-0.3c0.1,0.2,0.4,0.3,0.4,0.5c-0.8,0.9-2.3,0.8-3.1,0
		C177.5,62,177.6,60.5,178.5,59.7z"/>
</g>
<g>
	<path class="st20" d="M111.4,59.9c0.4-0.4,1-0.7,1.6-0.7c0.7-0.1,1.3,0.5,1.6,1.1l0,0.1c-0.3,1-0.1,2-0.2,3c-0.1,0-0.4,0-0.5,0
		c0-0.9,0-1.8,0-2.7c-0.1-0.7-0.9-1-1.5-0.8c-0.5,0.1-0.8,0.6-0.8,1.1c0,0.8,0,1.6,0,2.3c-0.3,0-0.5,0-0.8,0c0-1.4,0-2.8,0-4.2
		c0.2,0,0.5,0,0.7,0C111.4,59.5,111.4,59.7,111.4,59.9z"/>
</g>
<g>
	<path class="st21" d="M133.6,59.9c0.5-0.7,1.4-0.9,2.2-0.5c-0.1,0.2-0.2,0.5-0.3,0.7c-0.3-0.1-0.6-0.2-0.9-0.3
		c-0.5,0.2-1,0.6-1,1.1c0,0.8,0,1.7,0,2.5c-0.3,0-0.5,0-0.8,0c0-1.4,0-2.8,0-4.2c0.2,0,0.5,0,0.7,0
		C133.6,59.5,133.6,59.7,133.6,59.9z"/>
</g>
<g>
	<g>
		<path class="st22" d="M139.2,59.3c0.7-0.2,1.5-0.1,2,0.3c1,0.7,1.1,2.3,0.3,3.2c-1,1.1-3.1,0.9-3.7-0.5
			C137.3,61.2,137.9,59.6,139.2,59.3z M139.2,60c-1,0.5-1,2.3,0.1,2.7c0.9,0.5,2.1-0.3,2-1.3C141.5,60.3,140.1,59.5,139.2,60z"/>
	</g>
</g>
<g>
	<path class="st23" d="M168.9,59.3c0.2,0,0.5,0,0.7,0c0,1.4,0,2.8,0,4.2c-0.2,0-0.5,0-0.7,0c0-0.1,0-0.4,0-0.6c-0.8,1-2.7,0.9-3-0.4
		c-0.1-1,0-2.1,0-3.2c0.2,0,0.5,0,0.7,0c0,0.9,0,1.8,0,2.8c0.1,0.8,1.1,1.1,1.8,0.6c0.4-0.2,0.6-0.8,0.6-1.3
		C168.9,60.7,168.9,60,168.9,59.3z"/>
</g>
<g>
	<path class="st24" d="M172.7,59.8c0.8-0.8,2.2-0.8,3-0.1c0,0,0,0.1,0,0.2c-0.1,0.1-0.3,0.3-0.4,0.4c-0.5-0.4-1.1-0.6-1.7-0.3
		c-1.1,0.5-1.1,2.3,0,2.8c0.6,0.3,1.2,0,1.7-0.3c0.1,0.2,0.2,0.3,0.3,0.5c-0.8,0.7-2,0.9-2.8,0.3C171.9,62.5,171.8,60.7,172.7,59.8z
		"/>
</g>
<g>
	<g>
		<path class="st25" d="M184.5,59.5c0.8-0.5,2-0.3,2.6,0.5c0.4,0.5,0.4,1.1,0.4,1.7c-1.1,0-2.2,0-3.3,0c0.1,0.4,0.3,0.9,0.7,1.1
			c0.7,0.4,1.5,0.1,2-0.3c0.1,0.2,0.3,0.3,0.4,0.5c-0.8,0.8-2.2,0.9-3.1,0.2C183.1,62.2,183.2,60.2,184.5,59.5z M184.2,61
			c0.9,0,1.7-0.1,2.6,0c0-0.5-0.4-1.1-1-1.1C185,59.7,184.3,60.3,184.2,61z"/>
	</g>
</g>
<g>
	<g>
		<path class="st26" d="M190.6,59.5c0.9-0.7,2.4-0.3,2.9,0.7c0.3,0.4,0.2,0.9,0.2,1.3c-1.1,0-2.2-0.1-3.3,0c0.2,0.4,0.3,0.8,0.7,1
			c0.6,0.4,1.5,0.2,2-0.3c0.2,0.2,0.3,0.3,0.4,0.5c-0.8,0.7-2.1,0.9-3,0.3C189.4,62.4,189.4,60.3,190.6,59.5z M190.5,60.9
			c0,0,0.1,0.1,0.2,0.1c0.8,0,1.6,0,2.4,0c0-0.5-0.4-1-0.8-1.1C191.4,59.7,190.7,60.2,190.5,60.9z"/>
	</g>
</g>
<g>
	<path class="st27" d="M144,59.3c0.2,0,0.5,0,0.7,0c0.3,1.1,0.6,2.1,1,3.2c0.4-1.1,0.7-2.1,1.1-3.2c0.2,0,0.5,0,0.6,0
		c0.5,1,0.8,2.1,1.1,3.2c0.4-1,0.7-2.1,1-3.2c0.3,0,0.5,0,0.8,0c-0.5,1.4-0.9,2.8-1.4,4.2c-0.2,0-0.5,0-0.7,0
		c-0.3-1-0.7-2.1-1.1-3.1c-0.5,1-0.7,2.1-1.2,3.1c-0.2,0-0.5,0-0.7,0C144.9,62.1,144.4,60.7,144,59.3z"/>
</g>
<g>
	<path class="st28" d="M93.5,61c0-0.9,1.1-1.4,1.9-1c0.4,0.2,0.7,0.6,0.7,1C95.2,61,94.4,61,93.5,61z"/>
</g>
<g>
	<path class="st29" d="M139.2,60c0.9-0.6,2.3,0.3,2.1,1.4c0.1,1-1.1,1.8-2,1.3C138.2,62.3,138.1,60.5,139.2,60z"/>
</g>
<g>
	<path class="st30" d="M184.2,61c0.1-0.7,0.8-1.3,1.6-1.1c0.6,0.1,1,0.6,1,1.1C185.9,60.9,185.1,61,184.2,61z"/>
</g>
<g>
	<path class="st31" d="M190.5,60.9c0.2-0.7,1-1.2,1.7-1c0.5,0.1,0.8,0.6,0.8,1.1c-0.8,0-1.6,0-2.4,0C190.6,61,190.5,60.9,190.5,60.9
		z"/>
</g>
<g>
	<path class="st32" d="M197.5,60c0.9-0.4,2,0.3,1.9,1.3c0.1,0.9-0.8,1.8-1.7,1.6C196.5,62.6,196.3,60.5,197.5,60z"/>
</g>
<g>
	<path class="st33" d="M114.3,63.4c0.1-1-0.1-2.1,0.2-3c0.1,1,0,2,0,3.1L114.3,63.4z"/>
</g>
<g>
	<path class="st34" d="M38.8,62.7c0.8-0.3,1.1-1.1,1.2-1.9c0.1,0.2,0.1,0.5,0.2,0.7c0.2,0.9,0.1,1.9,0.1,2.8
		C39.8,63.8,39.3,63.3,38.8,62.7z"/>
</g>
<g>
	<path class="st35" d="M100.2,61.6c0.6-0.2,1.2-0.1,1.8-0.1c0.3,1.1-1.4,1.8-2.1,1C99.6,62.3,99.8,61.8,100.2,61.6z"/>
</g>
<g>
	<path class="st36" d="M117.5,62.4c0.5-0.3,1.2,0.4,0.7,0.9c-0.3,0.5-1.1,0.2-1.1-0.4C117.2,62.7,117.4,62.5,117.5,62.4z"/>
</g>
<g>
	<path class="st37" d="M152.5,62.4c0.3-0.1,0.8,0.1,0.8,0.5c0.1,0.5-0.6,0.8-0.9,0.5C151.9,63.2,152.1,62.5,152.5,62.4z"/>
</g>
<g>
	<path class="st38" d="M202.8,62.8c0.1-0.6,1.1-0.5,1.1,0.1c0.1,0.4-0.3,0.5-0.6,0.7C203.1,63.5,202.7,63.2,202.8,62.8z"/>
</g>
</svg>
